<svg width="237" height="62" viewBox="0 0 237 62" fill="none" xmlns="http://www.w3.org/2000/svg">
<path d="M96.1457 10.8108C106.254 10.8108 112.256 17.6954 112.256 26.215C112.256 34.7346 105.769 41.6191 96.1457 41.6191H87.1853C86.0816 41.6191 85.6846 41.3973 85.6846 40.6469C85.6846 39.7214 87.1853 38.4834 87.1853 37.0732V15.3567C87.1853 13.9436 85.6846 12.7086 85.6846 11.8268C85.6846 11.0327 86.0816 10.8108 87.1853 10.8108H96.1457ZM95.7925 39.1024C101.311 39.1024 105.062 33.3214 105.062 26.215C105.062 19.1085 101.179 13.3275 95.7925 13.3275H94.4231V39.1024H95.7925Z" fill="white"/>
<path d="M113.973 29.2018C114.732 24.6763 118.96 20.5508 124.183 21.4296C128.971 22.2325 132.884 27.1872 131.868 33.2368C131.036 38.2002 126.682 41.9899 121.547 41.1257C117.062 40.3724 112.875 35.7302 113.97 29.2018H113.973ZM121.392 26.3288C120.347 32.5536 121.392 39.1287 122.828 39.371C123.526 39.4878 124.084 38.2849 124.428 36.2382C125.459 30.101 124.56 23.4617 123.08 23.2106C122.382 23.0938 121.634 24.8923 121.392 26.3288Z" fill="white"/>
<path d="M184.866 29.2018C185.625 24.6763 189.852 20.5508 195.076 21.4296C199.864 22.2325 203.776 27.1872 202.76 33.2368C201.928 38.2002 197.575 41.9899 192.439 41.1257C187.955 40.3724 183.768 35.7302 184.863 29.2018H184.866ZM192.285 26.3288C191.239 32.5536 192.285 39.1287 193.721 39.371C194.419 39.4878 194.976 38.2849 195.321 36.2382C196.352 30.101 195.452 23.4617 193.972 23.2106C193.274 23.0938 192.527 24.8923 192.285 26.3288Z" fill="white"/>
<path d="M205.488 36.6704V27.1376C205.488 25.7245 203.987 25.2399 203.987 24.3581C203.987 23.1231 209.637 21.3567 210.697 21.3567C211.844 21.3567 212.154 21.7976 212.154 23.2107V29.2573C212.551 27.9785 213.611 23.3187 218.688 23.3187C220.939 23.3187 222.13 25.0413 222.13 26.761C222.13 28.4807 221.026 29.9843 218.819 29.9843C217.053 29.9843 216.965 29.234 215.774 29.234C213.082 29.234 212.203 32.5536 212.154 33.9346V36.6704C212.154 38.0835 213.698 39.3185 213.698 40.244C213.698 40.9944 213.301 41.2163 212.154 41.2163H205.488C204.384 41.2163 203.987 40.9944 203.987 40.244C203.987 39.3185 205.488 38.0806 205.488 36.6704Z" fill="white"/>
<path d="M131.345 57.0525C131.208 57.0525 131.065 57.0175 130.937 56.9474C128.376 55.5401 126.756 53.3037 126.259 50.4774C125.801 47.876 126.411 45.2833 126.799 44.8366C127.109 44.4804 127.649 44.4454 128.002 44.7578C128.312 45.0264 128.376 45.4702 128.183 45.8147C128.058 46.1943 126.213 52.4132 131.757 55.4555C132.169 55.6832 132.321 56.2 132.093 56.6117C131.938 56.8949 131.646 57.0525 131.345 57.0525Z" fill="white"/>
<path d="M133.675 61.4378C133.646 61.4378 133.617 61.4378 133.587 61.4319C130.542 61.1253 127.865 59.502 126.428 57.0933C126.186 56.6904 126.32 56.1648 126.723 55.9254C127.129 55.686 127.652 55.8174 127.891 56.2203C128.326 56.9502 130.037 59.3619 133.76 59.7356C134.227 59.7823 134.568 60.1998 134.522 60.6699C134.478 61.1078 134.107 61.4378 133.675 61.4378Z" fill="white"/>
<path d="M146.323 55.0292C144.901 55.0292 143.678 54.7518 143.105 54.4716C142.682 54.2643 142.507 53.7562 142.714 53.3329C142.921 52.9095 143.432 52.7344 143.853 52.9417C144.527 53.2716 147.132 53.7037 149.275 52.7665C150.591 52.1913 151.47 51.1957 151.888 49.8059C152.025 49.3563 152.501 49.1023 152.948 49.2366C153.397 49.3709 153.654 49.8468 153.517 50.2964C152.956 52.1592 151.724 53.5548 149.955 54.3285C148.772 54.8453 147.479 55.0292 146.317 55.0292H146.323Z" fill="white"/>
<path d="M164.808 21.0036C167.552 24.2152 168.174 23.2722 168.848 23.0795C169.272 22.9568 170.311 21.6517 171.024 20.6999C171.432 20.0138 172.127 19.3656 172.127 18.8927C172.127 18.1861 171.759 17.9905 170.843 17.9905H164.901C163.984 17.9905 163.654 18.1861 163.654 18.8927C163.654 19.3656 164.098 20.043 164.545 20.7291C164.627 20.808 164.714 20.8956 164.808 21.0036Z" fill="white"/>
<path d="M168.072 25.4472C167.082 25.4268 166.364 26.1392 165.979 27.1581L163.646 32.6237C163.112 33.7069 161.205 33.1259 160.355 30.9595C159.182 28.1216 157.865 25.2837 158.834 22.6268C159.164 21.3334 160.668 19.9465 160.668 19.0706C160.668 18.1422 160.186 17.8853 158.98 17.8853H151.737C150.531 17.8853 150.099 18.1422 150.099 19.0706C150.099 20.1013 151.69 21.8531 152.268 23.1932C152.268 23.1932 158.005 34.7931 159.018 38.9156C159.018 38.9156 159.453 40.4105 161.334 40.4105C163.068 40.4105 163.552 38.9682 163.552 38.9682C164.18 36.7025 166.3 32.3668 167.987 28.4515L168.075 25.4501L168.072 25.4472Z" fill="white"/>
<path d="M167.867 25.4472C168.857 25.4268 169.575 26.1392 169.961 27.1581L172.293 32.6237C172.828 33.7069 174.734 33.1259 175.584 30.9595C176.758 28.1216 178.074 25.2837 177.105 22.6268C176.775 21.3334 175.271 19.9465 175.271 19.0706C175.271 18.1422 175.753 17.8853 176.959 17.8853H184.203C185.409 17.8853 185.841 18.1422 185.841 19.0706C185.841 20.1013 184.249 21.8531 183.671 23.1932C183.671 23.1932 177.934 34.7931 176.921 38.9156C176.921 38.9156 176.486 40.4105 174.606 40.4105C172.871 40.4105 172.387 38.9682 172.387 38.9682C171.759 36.7025 169.639 32.3668 167.952 28.4515L167.864 25.4501L167.867 25.4472Z" fill="white"/>
<path d="M149.494 24.2911C148.099 22.8342 146.253 21.8327 144.3 21.5291C139.088 20.7203 134.908 24.9305 134.204 29.4443C133.185 36.0048 137.424 40.6208 141.938 41.3215C143.985 41.6398 145.909 41.2252 147.532 40.285C149.047 40.6646 150.055 42.1536 149.845 43.5054C149.672 44.6237 148.793 45.6777 146.373 45.301C143.442 44.8455 139.941 41.2982 136.776 40.8077C132.496 40.142 130.204 43.8383 129.786 46.536C129.1 50.9564 131.929 54.2089 134.908 54.6732C137.001 54.9973 137.947 53.5257 138.119 52.4075C138.437 50.3608 136.058 49.4178 134.335 49.1492C132.195 48.8163 131.474 47.9404 131.573 47.2893C131.652 46.7784 132.292 46.3521 133.083 46.4747C136.759 47.047 140.446 50.6207 144.309 51.2221C148.776 51.917 151.386 48.32 151.906 44.9682C152.318 42.3171 150.945 40.1011 149.202 39.0675C150.764 37.596 151.842 35.5698 152.198 33.2895C152.653 30.3582 151.973 27.6779 150.574 25.6487L149.5 24.2911H149.494ZM144.989 36.4106C144.671 38.4573 144.034 39.7887 143.243 39.6661C141.707 39.4266 140.37 32.691 141.34 26.4546C141.564 25.0122 142.388 23.0911 143.132 23.205C144.761 23.459 145.944 30.2676 144.989 36.4106Z" fill="white"/>
<path d="M217.911 24.5361C218.504 24.0427 219.254 23.7332 220.075 23.6865L219.651 23.1055C219.564 22.9303 219.52 22.7522 219.52 22.577C219.52 21.4296 221.196 20.326 221.196 19.5756C221.196 18.7815 220.799 18.5596 219.651 18.5596H215.768C214.664 18.5596 214.224 18.7815 214.224 19.5756C214.224 20.4574 216.297 22.3113 216.872 23.1055L217.911 24.5361Z" fill="white"/>
<path d="M234.352 39.8703L228.714 31.8441L232.422 25.9727C232.997 25.1347 234.983 23.3245 234.983 22.4428C234.983 21.6486 234.586 21.4268 233.482 21.4268H225.757C224.609 21.4268 224.212 21.6486 224.212 22.4428C224.212 23.1932 225.891 24.2968 225.891 25.4442C225.891 25.6194 225.847 25.7975 225.759 25.9727L225.549 26.2968L225.59 26.2676L218.919 36.7404C218.343 37.5346 216.271 39.3886 216.271 40.3141C216.271 41.0645 216.711 41.2863 217.815 41.2863H225.584C226.688 41.2863 227.129 41.0645 227.129 40.3141C227.129 39.52 225.453 38.4163 225.453 37.2689C225.453 37.0937 225.497 36.9156 225.584 36.7404L227.394 33.8704L231.575 39.8674C231.663 40.0426 231.707 40.2207 231.707 40.3521C231.707 41.4995 230.028 42.6469 230.028 43.3973C230.028 44.1914 230.469 44.3695 231.572 44.3695H235.456C236.559 44.3695 237 44.1943 237 43.3973C237 42.5155 234.927 40.6615 234.352 39.8674V39.8703Z" fill="white"/>
<path d="M48.2166 52.2658L47.9844 52.0376Z" fill="white"/>
<path d="M47.8524 52.8103C47.7763 52.8904 47.6962 52.9705 47.6201 53.0506Z" fill="white"/>
<path d="M19.0473 31.0966C18.743 27.3969 15.8921 24.8984 12.2645 25.1627C10.5468 25.2868 8.98124 26.0836 7.85212 27.4089C6.73101 28.7262 6.19449 30.3839 6.34664 32.0816C6.65495 35.5771 9.22951 37.9114 12.6769 37.9114C12.8411 37.9114 13.0093 37.9074 13.1734 37.8954C15.0313 37.7752 16.5768 37.0625 17.6459 35.8253C18.7149 34.5881 19.1994 32.9544 19.0473 31.0966ZM14.699 33.2788C14.2345 33.8193 13.4777 33.9755 12.9252 34.0075C11.3116 34.1116 10.3626 33.3028 10.2225 31.7332C10.1664 31.0846 10.3746 30.4479 10.8151 29.9314C11.2595 29.4069 11.8721 29.0946 12.5408 29.0466C12.6249 29.0385 12.705 29.0386 12.785 29.0386C14.1584 29.0386 15.0393 29.9114 15.1634 31.4169C15.2074 31.9695 15.1634 32.7382 14.699 33.2788Z" fill="white"/>
<path d="M26.4708 18.4041C26.6349 18.4041 26.8031 18.4001 26.9713 18.3881C28.8291 18.268 30.3747 17.5552 31.4397 16.318C32.5088 15.0808 32.9933 13.4472 32.8411 11.5893C32.5368 7.88962 29.686 5.38714 26.0584 5.6554C24.3447 5.77953 22.7751 6.57632 21.65 7.90163C20.5289 9.21895 19.9923 10.8766 20.1445 12.5743C20.4528 16.0698 23.0274 18.4041 26.4748 18.4041H26.4708ZM24.613 10.4241C25.0574 9.89962 25.67 9.58731 26.3387 9.53926C26.4228 9.53126 26.5028 9.53126 26.5829 9.53126C27.9563 9.53126 28.8372 10.4041 28.9613 11.9096C29.0053 12.4622 28.9613 13.2349 28.4968 13.7715C28.0323 14.312 27.2756 14.4682 26.723 14.5002C25.1214 14.6083 24.1605 13.7955 24.0203 12.2259C23.9643 11.5773 24.1725 10.9367 24.613 10.4241Z" fill="white"/>
<path d="M46.9026 18.8767C47.0668 18.8767 47.235 18.8727 47.3991 18.8607C49.257 18.7406 50.8025 18.0279 51.8676 16.7906C52.9366 15.5534 53.4211 13.9198 53.269 12.0619C52.9647 8.36225 50.1138 5.86376 46.4862 6.12802C44.7685 6.25214 43.2029 7.04893 42.0738 8.37425C40.9527 9.69156 40.4162 11.3492 40.5683 13.0469C40.8766 16.5424 43.4512 18.8767 46.8986 18.8767H46.9026ZM45.0408 10.8968C45.4852 10.3722 46.0978 10.0599 46.7665 10.0119C46.8506 10.0039 46.9307 10.0039 47.0107 10.0039C48.3841 10.0039 49.265 10.8767 49.3891 12.3822C49.4332 12.9348 49.3891 13.7076 48.9246 14.2441C48.4602 14.7846 47.7034 14.9408 47.1549 14.9728C45.5453 15.0809 44.5923 14.2681 44.4522 12.6986C44.3961 12.0499 44.6043 11.4133 45.0448 10.8968H45.0408Z" fill="white"/>
<path d="M65.4935 34.8365C66.6186 33.5352 67.1631 31.8655 67.023 30.1318C66.8828 28.4061 66.09 26.8565 64.7847 25.7634C62.0941 23.5132 58.6226 23.6774 56.1842 26.1158C56.0681 26.2319 55.956 26.352 55.8439 26.4801C54.6146 27.8775 54.0261 29.4751 54.1462 31.1048C54.2663 32.7344 55.0791 34.2319 56.5005 35.4371C59.3313 37.8395 63.1191 37.5752 65.4935 34.8365ZM58.03 30.8205C57.978 30.1078 58.4024 29.4671 58.7668 29.0507C59.8198 27.8455 61.077 27.7374 62.2822 28.7464C62.7787 29.1628 63.0831 29.7634 63.1391 30.4401C63.1952 31.1248 62.983 31.7814 62.5465 32.2859C62.4905 32.35 62.4344 32.4101 62.3784 32.4661C61.4094 33.4351 60.1641 33.4431 59.015 32.4661C58.5946 32.1058 58.0781 31.5292 58.026 30.8205H58.03Z" fill="white"/>
<path d="M36.9891 23.4731C35.1793 23.4731 33.7139 24.9386 33.7139 26.7484C33.7139 28.5582 35.1793 30.0237 36.9891 30.0237C38.7989 30.0237 40.2644 28.5582 40.2644 26.7484C40.2644 24.9386 38.7989 23.4731 36.9891 23.4731ZM39.3595 26.5642C39.0952 26.7884 38.9471 26.0917 38.4386 25.4952C37.9301 24.8986 37.2574 24.6263 37.5217 24.4021C37.7859 24.1778 38.5627 24.338 39.0712 24.9346C39.5797 25.5312 39.6237 26.336 39.3595 26.5602V26.5642Z" fill="white"/>
<path d="M48.2166 52.2658L47.9844 52.0376Z" fill="white"/>
<path d="M47.8524 52.8103C47.7763 52.8904 47.6962 52.9705 47.6201 53.0506Z" fill="white"/>
<path d="M19.0473 31.0966C18.743 27.3969 15.8921 24.8984 12.2645 25.1627C10.5468 25.2868 8.98124 26.0836 7.85212 27.4089C6.73101 28.7262 6.19449 30.3839 6.34664 32.0816C6.65495 35.5771 9.22951 37.9114 12.6769 37.9114C12.8411 37.9114 13.0093 37.9074 13.1734 37.8954C15.0313 37.7752 16.5768 37.0625 17.6459 35.8253C18.7149 34.5881 19.1994 32.9544 19.0473 31.0966ZM14.699 33.2788C14.2345 33.8193 13.4777 33.9755 12.9252 34.0075C11.3116 34.1116 10.3626 33.3028 10.2225 31.7332C10.1664 31.0846 10.3746 30.4479 10.8151 29.9314C11.2595 29.4069 11.8721 29.0946 12.5408 29.0466C12.6249 29.0385 12.705 29.0386 12.785 29.0386C14.1584 29.0386 15.0393 29.9114 15.1634 31.4169C15.2074 31.9695 15.1634 32.7382 14.699 33.2788Z" fill="white"/>
<path d="M26.4708 18.4041C26.6349 18.4041 26.8031 18.4001 26.9713 18.3881C28.8291 18.268 30.3747 17.5552 31.4397 16.318C32.5088 15.0808 32.9933 13.4472 32.8411 11.5893C32.5368 7.88962 29.686 5.38714 26.0584 5.6554C24.3447 5.77953 22.7751 6.57632 21.65 7.90163C20.5289 9.21895 19.9923 10.8766 20.1445 12.5743C20.4528 16.0698 23.0274 18.4041 26.4748 18.4041H26.4708ZM24.613 10.4241C25.0574 9.89962 25.67 9.58731 26.3387 9.53926C26.4228 9.53126 26.5028 9.53126 26.5829 9.53126C27.9563 9.53126 28.8372 10.4041 28.9613 11.9096C29.0053 12.4622 28.9613 13.2349 28.4968 13.7715C28.0323 14.312 27.2756 14.4682 26.723 14.5002C25.1214 14.6083 24.1605 13.7955 24.0203 12.2259C23.9643 11.5773 24.1725 10.9367 24.613 10.4241Z" fill="white"/>
<path d="M46.9026 18.8767C47.0668 18.8767 47.235 18.8727 47.3991 18.8607C49.257 18.7406 50.8025 18.0279 51.8676 16.7906C52.9366 15.5534 53.4211 13.9198 53.269 12.0619C52.9647 8.36225 50.1138 5.86376 46.4862 6.12802C44.7685 6.25214 43.2029 7.04893 42.0738 8.37425C40.9527 9.69156 40.4162 11.3492 40.5683 13.0469C40.8766 16.5424 43.4512 18.8767 46.8986 18.8767H46.9026ZM45.0408 10.8968C45.4852 10.3722 46.0978 10.0599 46.7665 10.0119C46.8506 10.0039 46.9307 10.0039 47.0107 10.0039C48.3841 10.0039 49.265 10.8767 49.3891 12.3822C49.4332 12.9348 49.3891 13.7076 48.9246 14.2441C48.4602 14.7846 47.7034 14.9408 47.1549 14.9728C45.5453 15.0809 44.5923 14.2681 44.4522 12.6986C44.3961 12.0499 44.6043 11.4133 45.0448 10.8968H45.0408Z" fill="white"/>
<path d="M65.4935 34.8365C66.6186 33.5352 67.1631 31.8655 67.023 30.1318C66.8828 28.4061 66.09 26.8565 64.7847 25.7634C62.0941 23.5132 58.6226 23.6774 56.1842 26.1158C56.0681 26.2319 55.956 26.352 55.8439 26.4801C54.6146 27.8775 54.0261 29.4751 54.1462 31.1048C54.2663 32.7344 55.0791 34.2319 56.5005 35.4371C59.3313 37.8395 63.1191 37.5752 65.4935 34.8365ZM58.03 30.8205C57.978 30.1078 58.4024 29.4671 58.7668 29.0507C59.8198 27.8455 61.077 27.7374 62.2822 28.7464C62.7787 29.1628 63.0831 29.7634 63.1391 30.4401C63.1952 31.1248 62.983 31.7814 62.5465 32.2859C62.4905 32.35 62.4344 32.4101 62.3784 32.4661C61.4094 33.4351 60.1641 33.4431 59.015 32.4661C58.5946 32.1058 58.0781 31.5292 58.026 30.8205H58.03Z" fill="white"/>
<path d="M36.9891 23.4731C35.1793 23.4731 33.7139 24.9386 33.7139 26.7484C33.7139 28.5582 35.1793 30.0237 36.9891 30.0237C38.7989 30.0237 40.2644 28.5582 40.2644 26.7484C40.2644 24.9386 38.7989 23.4731 36.9891 23.4731ZM39.3595 26.5642C39.0952 26.7884 38.9471 26.0917 38.4386 25.4952C37.9301 24.8986 37.2574 24.6263 37.5217 24.4021C37.7859 24.1778 38.5627 24.338 39.0712 24.9346C39.5797 25.5312 39.6237 26.336 39.3595 26.5602V26.5642Z" fill="white"/>
<path d="M48.2166 52.2658L47.9844 52.0376Z" fill="white"/>
<path d="M47.8524 52.8103C47.7763 52.8904 47.6962 52.9705 47.6201 53.0506Z" fill="white"/>
<path d="M19.0473 31.0966C18.743 27.3969 15.8921 24.8984 12.2645 25.1627C10.5468 25.2868 8.98124 26.0836 7.85212 27.4089C6.73101 28.7262 6.19449 30.3839 6.34664 32.0816C6.65495 35.5771 9.22951 37.9114 12.6769 37.9114C12.8411 37.9114 13.0093 37.9074 13.1734 37.8954C15.0313 37.7752 16.5768 37.0625 17.6459 35.8253C18.7149 34.5881 19.1994 32.9544 19.0473 31.0966ZM14.699 33.2788C14.2345 33.8193 13.4777 33.9755 12.9252 34.0075C11.3116 34.1116 10.3626 33.3028 10.2225 31.7332C10.1664 31.0846 10.3746 30.4479 10.8151 29.9314C11.2595 29.4069 11.8721 29.0946 12.5408 29.0466C12.6249 29.0385 12.705 29.0386 12.785 29.0386C14.1584 29.0386 15.0393 29.9114 15.1634 31.4169C15.2074 31.9695 15.1634 32.7382 14.699 33.2788Z" fill="white"/>
<path d="M26.4708 18.4041C26.6349 18.4041 26.8031 18.4001 26.9713 18.3881C28.8291 18.268 30.3747 17.5552 31.4397 16.318C32.5088 15.0808 32.9933 13.4472 32.8411 11.5893C32.5368 7.88962 29.686 5.38714 26.0584 5.6554C24.3447 5.77953 22.7751 6.57632 21.65 7.90163C20.5289 9.21895 19.9923 10.8766 20.1445 12.5743C20.4528 16.0698 23.0274 18.4041 26.4748 18.4041H26.4708ZM24.613 10.4241C25.0574 9.89962 25.67 9.58731 26.3387 9.53926C26.4228 9.53126 26.5028 9.53126 26.5829 9.53126C27.9563 9.53126 28.8372 10.4041 28.9613 11.9096C29.0053 12.4622 28.9613 13.2349 28.4968 13.7715C28.0323 14.312 27.2756 14.4682 26.723 14.5002C25.1214 14.6083 24.1605 13.7955 24.0203 12.2259C23.9643 11.5773 24.1725 10.9367 24.613 10.4241Z" fill="white"/>
<path d="M46.9026 18.8767C47.0668 18.8767 47.235 18.8727 47.3991 18.8607C49.257 18.7406 50.8025 18.0279 51.8676 16.7906C52.9366 15.5534 53.4211 13.9198 53.269 12.0619C52.9647 8.36225 50.1138 5.86376 46.4862 6.12802C44.7685 6.25214 43.2029 7.04893 42.0738 8.37425C40.9527 9.69156 40.4162 11.3492 40.5683 13.0469C40.8766 16.5424 43.4512 18.8767 46.8986 18.8767H46.9026ZM45.0408 10.8968C45.4852 10.3722 46.0978 10.0599 46.7665 10.0119C46.8506 10.0039 46.9307 10.0039 47.0107 10.0039C48.3841 10.0039 49.265 10.8767 49.3891 12.3822C49.4332 12.9348 49.3891 13.7076 48.9246 14.2441C48.4602 14.7846 47.7034 14.9408 47.1549 14.9728C45.5453 15.0809 44.5923 14.2681 44.4522 12.6986C44.3961 12.0499 44.6043 11.4133 45.0448 10.8968H45.0408Z" fill="white"/>
<path d="M65.4935 34.8365C66.6186 33.5352 67.1631 31.8655 67.023 30.1318C66.8828 28.4061 66.09 26.8565 64.7847 25.7634C62.0941 23.5132 58.6226 23.6774 56.1842 26.1158C56.0681 26.2319 55.956 26.352 55.8439 26.4801C54.6146 27.8775 54.0261 29.4751 54.1462 31.1048C54.2663 32.7344 55.0791 34.2319 56.5005 35.4371C59.3313 37.8395 63.1191 37.5752 65.4935 34.8365ZM58.03 30.8205C57.978 30.1078 58.4024 29.4671 58.7668 29.0507C59.8198 27.8455 61.077 27.7374 62.2822 28.7464C62.7787 29.1628 63.0831 29.7634 63.1391 30.4401C63.1952 31.1248 62.983 31.7814 62.5465 32.2859C62.4905 32.35 62.4344 32.4101 62.3784 32.4661C61.4094 33.4351 60.1641 33.4431 59.015 32.4661C58.5946 32.1058 58.0781 31.5292 58.026 30.8205H58.03Z" fill="white"/>
<path d="M36.9891 23.4731C35.1793 23.4731 33.7139 24.9386 33.7139 26.7484C33.7139 28.5582 35.1793 30.0237 36.9891 30.0237C38.7989 30.0237 40.2644 28.5582 40.2644 26.7484C40.2644 24.9386 38.7989 23.4731 36.9891 23.4731ZM39.3595 26.5642C39.0952 26.7884 38.9471 26.0917 38.4386 25.4952C37.9301 24.8986 37.2574 24.6263 37.5217 24.4021C37.7859 24.1778 38.5627 24.338 39.0712 24.9346C39.5797 25.5312 39.6237 26.336 39.3595 26.5602V26.5642Z" fill="white"/>
<path d="M72.696 29.8033C72.1034 22.5881 66.7701 17.9075 59.7311 18.412C59.0024 18.464 58.2897 18.5921 57.597 18.7683C58.7582 16.7023 59.2546 14.2078 59.0264 11.429C58.4338 4.21382 53.1045 -0.470844 46.0615 0.0376625C42.7823 0.273898 39.7833 1.80342 37.6211 4.34195C37.2408 4.79039 36.9044 5.26688 36.5961 5.75537C34.3579 2.04767 30.3178 -0.0624347 25.469 0.277904C22.1898 0.514139 19.1908 2.04366 17.0246 4.58219C14.8785 7.1047 13.8535 10.2719 14.1418 13.5071C14.386 16.2578 15.3309 18.6041 16.8004 20.434C15.1668 19.8254 13.341 19.5491 11.375 19.6892C8.09174 19.9255 5.09675 21.455 2.93059 23.9935C0.784457 26.516 -0.240568 29.6832 0.0477189 32.9184C0.648317 39.7012 5.4531 44.0815 12.1358 44.0815C12.4681 44.0815 12.8004 44.0695 13.1408 44.0495C14.2258 43.9814 15.2429 43.7972 16.2038 43.529C15.3269 44.3338 14.5181 45.3027 13.8334 46.568C12.6362 48.7822 12.6683 51.1686 13.9335 53.4628C14.1177 53.7992 14.3179 54.1515 14.5542 54.3758C15.5111 55.2847 16.456 56.2736 17.461 57.0024C19.3549 58.3797 21.3529 59.1445 23.3629 59.7731C24.0797 59.9973 24.8044 60.1815 25.5251 60.3297C26.2298 60.4738 26.3939 60.0974 26.1697 58.9683C25.9215 57.7111 25.453 56.7341 24.7163 56.1615C24.2438 55.7972 23.7553 55.4849 23.2588 55.2326C21.9135 54.5519 20.5401 54.0034 19.2108 53.2306C18.354 52.7341 17.5011 52.0655 16.7363 51.2406C15.6913 50.1075 15.4991 48.63 16.0797 47.1526C16.5442 45.9754 17.3089 45.3988 18.0456 44.7782C18.1097 44.7261 18.2178 44.8142 18.3059 44.8343C18.2899 44.9904 18.2979 45.1746 18.2498 45.3027C17.6773 46.8643 17.7413 47.6531 18.6102 48.9023C18.8625 49.2667 19.1427 49.635 19.443 49.8392C20.6322 50.64 21.8134 51.565 23.0466 52.0975C27.0866 53.8472 31.1907 54.4678 35.3108 54.4999C38.6702 54.5279 41.9815 53.9113 45.2607 52.9543C47.7472 52.2296 50.1776 51.2527 52.4479 49.5229C53.1886 48.9584 53.9013 48.2016 54.5099 47.3167C55.3948 46.0315 55.3588 45.3468 54.606 43.6771C54.538 43.5289 54.5099 43.3328 54.4619 43.1606C54.598 43.1085 54.7582 42.9564 54.8663 43.0244C55.7031 43.557 56.4999 44.2377 57.0605 45.4389C57.573 46.54 57.565 47.4489 57.0925 48.566C56.9604 48.8783 56.7882 49.1506 56.612 49.4028C55.3828 51.1566 53.8693 52.0935 52.3158 52.7782C50.3618 53.635 48.3718 54.3317 46.3698 54.9083C44.576 55.4248 42.7462 55.6931 40.9324 56.0494C40.0115 56.2296 39.0706 56.2817 38.1577 56.5259C37.0766 56.8182 36.1877 57.659 35.7032 59.3167C35.3068 60.67 35.5991 61.3907 36.524 61.3227C37.7853 61.2306 39.0425 61.0023 40.3078 60.9263C42.6621 60.7821 44.9765 60.2736 47.2827 59.645C50.0095 58.9002 52.6721 57.8392 55.2146 56.1575C56.6521 55.2086 58.0214 54.0474 59.1466 52.2897C60.628 49.9754 61.0084 46.9804 58.9984 44.1456C58.55 43.513 58.0695 42.9724 57.573 42.4959C58.4979 42.6921 59.4709 42.8082 60.4919 42.8082C60.8202 42.8082 61.1566 42.7962 61.4969 42.7762C65.0925 42.548 68.0594 41.1946 70.0694 38.8643C72.0834 36.534 72.9883 33.4029 72.696 29.8033ZM40.5801 6.86447C42.0616 5.12674 44.1036 4.07768 46.3378 3.91753C46.5941 3.89751 46.8503 3.88951 47.0986 3.88951C51.6191 3.88951 54.7462 6.9005 55.1426 11.7413C55.3508 14.2718 54.7662 16.418 53.4489 17.9355C52.1356 19.453 50.1056 20.3419 47.575 20.506C42.486 20.8344 39.0545 17.9235 38.6101 12.9185C38.4179 10.7323 39.1146 8.58217 40.5801 6.86046V6.86447ZM19.9836 7.1007C21.4651 5.36297 23.5071 4.31393 25.7413 4.15377C25.9976 4.13375 26.2538 4.12574 26.5021 4.12574C31.0226 4.12574 34.1497 7.13673 34.5461 11.9776C34.7543 14.5081 34.1697 16.6542 32.8564 18.1717C31.5431 19.6932 29.5131 20.5781 26.9825 20.7423C21.9015 21.0706 18.4621 18.1597 18.0176 13.1547C17.8254 10.9685 18.5221 8.8144 19.9876 7.09669L19.9836 7.1007ZM12.8885 40.1616C7.81145 40.4939 4.36802 37.579 3.92357 32.5741C3.73138 30.3879 4.42809 28.2377 5.89355 26.516C7.37503 24.7783 9.42107 23.7293 11.6513 23.5691C11.9075 23.5491 12.1638 23.5411 12.412 23.5411C16.9325 23.5411 20.0597 26.5521 20.456 31.3929C20.6643 33.9234 20.0797 36.0655 18.7664 37.5871C17.453 39.1086 15.423 39.9934 12.8925 40.1576L12.8885 40.1616ZM28.5321 45.4829C27.3709 46.6961 26.0616 47.3407 24.7243 47.8813C24.0877 48.1375 23.467 48.0294 22.9265 47.2407C22.442 46.5279 22.3579 45.7992 22.7663 45.0585C23.0186 44.606 23.3349 44.2016 23.6712 43.9334C25.3409 42.616 27.1547 41.9954 28.9925 41.535C29.7213 41.3508 30.454 41.2267 31.3669 41.0385C30.5501 43.0645 29.5971 44.3698 28.5281 45.4869L28.5321 45.4829ZM49.9254 46.2677C49.3088 46.9844 48.6081 47.565 47.8913 48.0054C45.5931 49.4148 43.1426 49.8953 40.7002 50.4078C38.7302 50.8202 39.2828 49.2427 41.2127 48.598C45.6091 47.2727 46.9544 45.3548 46.4179 44.542C45.8813 43.7292 45.6571 43.6851 45.2647 43.2847C42.0535 40.6261 39.9795 38.2557 39.487 32.7542C39.2147 30.8043 34.8023 30.2237 34.3619 32.8383C34.0295 34.8203 34.0496 35.1526 33.8053 35.7812C33.5531 36.4379 32.9124 37.1266 32.48 37.2067C30.51 37.559 28.5401 37.9114 26.5861 38.3838C24.9645 38.7762 23.3709 39.3208 21.8094 40.0255C23.7513 37.7072 24.6322 34.6241 24.3439 31.0846C24.1077 28.2257 23.1227 25.7753 21.5892 23.8734C22.9946 24.3939 24.5521 24.6742 26.2338 24.6742C26.5661 24.6742 26.8985 24.6622 27.2388 24.6422C30.8344 24.4099 33.8013 23.0606 35.8113 20.7303C36.1797 20.3058 36.496 19.8414 36.7923 19.3649C38.9064 22.5561 42.4619 24.434 46.8303 24.434C47.1586 24.434 47.495 24.4219 47.8353 24.4019C48.7082 24.3459 49.541 24.2217 50.3298 24.0376C48.8563 26.3038 48.1716 28.9504 48.4119 31.6451C48.6681 34.544 49.6971 37.0025 51.3108 38.8683C49.9254 38.3598 48.524 37.9874 47.1106 37.7112C45.4529 37.3869 46.1937 37.4829 44.532 37.3268C43.7753 37.2547 43.579 37.8673 43.9154 39.0205C44.2797 40.2697 44.9284 40.8863 45.7332 41.0785C46.514 41.2667 48.4519 42.0955 49.7132 43.2487C50.6461 44.1015 50.7502 45.3107 49.9254 46.2717V46.2677ZM67.1265 36.3178C65.8132 37.8353 63.7832 38.7242 61.2527 38.8883C56.1796 39.2167 52.7322 36.3058 52.2877 31.3008C52.0955 29.1146 52.7922 26.9645 54.2577 25.2428C55.7392 23.505 57.7812 22.456 60.0154 22.2958C60.2717 22.2758 60.5279 22.2678 60.7762 22.2678C65.2967 22.2678 68.4238 25.2788 68.8202 30.1196C69.0284 32.6501 68.4438 34.7923 67.1305 36.3138L67.1265 36.3178Z" fill="white"/>
<path d="M48.2166 52.2658L47.9844 52.0376Z" fill="white"/>
<path d="M47.8524 52.8103C47.7763 52.8904 47.6962 52.9705 47.6201 53.0506Z" fill="white"/>
<path d="M19.0473 31.0966C18.743 27.3969 15.8921 24.8984 12.2645 25.1627C10.5468 25.2868 8.98124 26.0836 7.85212 27.4089C6.73101 28.7262 6.19449 30.3839 6.34664 32.0816C6.65495 35.5771 9.22951 37.9114 12.6769 37.9114C12.8411 37.9114 13.0093 37.9074 13.1734 37.8954C15.0313 37.7752 16.5768 37.0625 17.6459 35.8253C18.7149 34.5881 19.1994 32.9544 19.0473 31.0966ZM14.699 33.2788C14.2345 33.8193 13.4777 33.9755 12.9252 34.0075C11.3116 34.1116 10.3626 33.3028 10.2225 31.7332C10.1664 31.0846 10.3746 30.4479 10.8151 29.9314C11.2595 29.4069 11.8721 29.0946 12.5408 29.0466C12.6249 29.0385 12.705 29.0386 12.785 29.0386C14.1584 29.0386 15.0393 29.9114 15.1634 31.4169C15.2074 31.9695 15.1634 32.7382 14.699 33.2788Z" fill="white"/>
<path d="M26.4708 18.4041C26.6349 18.4041 26.8031 18.4001 26.9713 18.3881C28.8291 18.268 30.3747 17.5552 31.4397 16.318C32.5088 15.0808 32.9933 13.4472 32.8411 11.5893C32.5368 7.88962 29.686 5.38714 26.0584 5.6554C24.3447 5.77953 22.7751 6.57632 21.65 7.90163C20.5289 9.21895 19.9923 10.8766 20.1445 12.5743C20.4528 16.0698 23.0274 18.4041 26.4748 18.4041H26.4708ZM24.613 10.4241C25.0574 9.89962 25.67 9.58731 26.3387 9.53926C26.4228 9.53126 26.5028 9.53126 26.5829 9.53126C27.9563 9.53126 28.8372 10.4041 28.9613 11.9096C29.0053 12.4622 28.9613 13.2349 28.4968 13.7715C28.0323 14.312 27.2756 14.4682 26.723 14.5002C25.1214 14.6083 24.1605 13.7955 24.0203 12.2259C23.9643 11.5773 24.1725 10.9367 24.613 10.4241Z" fill="white"/>
<path d="M46.9026 18.8767C47.0668 18.8767 47.235 18.8727 47.3991 18.8607C49.257 18.7406 50.8025 18.0279 51.8676 16.7906C52.9366 15.5534 53.4211 13.9198 53.269 12.0619C52.9647 8.36225 50.1138 5.86376 46.4862 6.12802C44.7685 6.25214 43.2029 7.04893 42.0738 8.37425C40.9527 9.69156 40.4162 11.3492 40.5683 13.0469C40.8766 16.5424 43.4512 18.8767 46.8986 18.8767H46.9026ZM45.0408 10.8968C45.4852 10.3722 46.0978 10.0599 46.7665 10.0119C46.8506 10.0039 46.9307 10.0039 47.0107 10.0039C48.3841 10.0039 49.265 10.8767 49.3891 12.3822C49.4332 12.9348 49.3891 13.7076 48.9246 14.2441C48.4602 14.7846 47.7034 14.9408 47.1549 14.9728C45.5453 15.0809 44.5923 14.2681 44.4522 12.6986C44.3961 12.0499 44.6043 11.4133 45.0448 10.8968H45.0408Z" fill="white"/>
<path d="M65.4935 34.8365C66.6186 33.5352 67.1631 31.8655 67.023 30.1318C66.8828 28.4061 66.09 26.8565 64.7847 25.7634C62.0941 23.5132 58.6226 23.6774 56.1842 26.1158C56.0681 26.2319 55.956 26.352 55.8439 26.4801C54.6146 27.8775 54.0261 29.4751 54.1462 31.1048C54.2663 32.7344 55.0791 34.2319 56.5005 35.4371C59.3313 37.8395 63.1191 37.5752 65.4935 34.8365ZM58.03 30.8205C57.978 30.1078 58.4024 29.4671 58.7668 29.0507C59.8198 27.8455 61.077 27.7374 62.2822 28.7464C62.7787 29.1628 63.0831 29.7634 63.1391 30.4401C63.1952 31.1248 62.983 31.7814 62.5465 32.2859C62.4905 32.35 62.4344 32.4101 62.3784 32.4661C61.4094 33.4351 60.1641 33.4431 59.015 32.4661C58.5946 32.1058 58.0781 31.5292 58.026 30.8205H58.03Z" fill="white"/>
<path d="M36.9891 23.4731C35.1793 23.4731 33.7139 24.9386 33.7139 26.7484C33.7139 28.5582 35.1793 30.0237 36.9891 30.0237C38.7989 30.0237 40.2644 28.5582 40.2644 26.7484C40.2644 24.9386 38.7989 23.4731 36.9891 23.4731ZM39.3595 26.5642C39.0952 26.7884 38.9471 26.0917 38.4386 25.4952C37.9301 24.8986 37.2574 24.6263 37.5217 24.4021C37.7859 24.1778 38.5627 24.338 39.0712 24.9346C39.5797 25.5312 39.6237 26.336 39.3595 26.5602V26.5642Z" fill="white"/>
<path d="M48.2166 52.2658L47.9844 52.0376Z" fill="#4FC6E0"/>
<path d="M47.8524 52.8103C47.7763 52.8904 47.6962 52.9705 47.6201 53.0506Z" fill="#4FC6E0"/>
<path d="M19.0473 31.0966C18.743 27.3969 15.8921 24.8984 12.2645 25.1627C10.5468 25.2868 8.98124 26.0836 7.85212 27.4089C6.73101 28.7262 6.19449 30.3839 6.34664 32.0816C6.65495 35.5771 9.22951 37.9114 12.6769 37.9114C12.8411 37.9114 13.0093 37.9074 13.1734 37.8954C15.0313 37.7752 16.5768 37.0625 17.6459 35.8253C18.7149 34.5881 19.1994 32.9544 19.0473 31.0966ZM14.699 33.2788C14.2345 33.8193 13.4777 33.9755 12.9252 34.0075C11.3116 34.1116 10.3626 33.3028 10.2225 31.7332C10.1664 31.0846 10.3746 30.4479 10.8151 29.9314C11.2595 29.4069 11.8721 29.0946 12.5408 29.0466C12.6249 29.0385 12.705 29.0386 12.785 29.0386C14.1584 29.0386 15.0393 29.9114 15.1634 31.4169C15.2074 31.9695 15.1634 32.7382 14.699 33.2788Z" fill="white"/>
<path d="M26.4708 18.4041C26.6349 18.4041 26.8031 18.4001 26.9713 18.3881C28.8291 18.268 30.3747 17.5552 31.4397 16.318C32.5088 15.0808 32.9933 13.4472 32.8411 11.5893C32.5368 7.88962 29.686 5.38714 26.0584 5.6554C24.3447 5.77953 22.7751 6.57632 21.65 7.90163C20.5289 9.21895 19.9923 10.8766 20.1445 12.5743C20.4528 16.0698 23.0274 18.4041 26.4748 18.4041H26.4708ZM24.613 10.4241C25.0574 9.89962 25.67 9.58731 26.3387 9.53926C26.4228 9.53126 26.5028 9.53126 26.5829 9.53126C27.9563 9.53126 28.8372 10.4041 28.9613 11.9096C29.0053 12.4622 28.9613 13.2349 28.4968 13.7715C28.0323 14.312 27.2756 14.4682 26.723 14.5002C25.1214 14.6083 24.1605 13.7955 24.0203 12.2259C23.9643 11.5773 24.1725 10.9367 24.613 10.4241Z" fill="white"/>
<path d="M46.9026 18.8767C47.0668 18.8767 47.235 18.8727 47.3991 18.8607C49.257 18.7406 50.8025 18.0279 51.8676 16.7906C52.9366 15.5534 53.4211 13.9198 53.269 12.0619C52.9647 8.36225 50.1138 5.86376 46.4862 6.12802C44.7685 6.25214 43.2029 7.04893 42.0738 8.37425C40.9527 9.69156 40.4162 11.3492 40.5683 13.0469C40.8766 16.5424 43.4512 18.8767 46.8986 18.8767H46.9026ZM45.0408 10.8968C45.4852 10.3722 46.0978 10.0599 46.7665 10.0119C46.8506 10.0039 46.9307 10.0039 47.0107 10.0039C48.3841 10.0039 49.265 10.8767 49.3891 12.3822C49.4332 12.9348 49.3891 13.7076 48.9246 14.2441C48.4602 14.7846 47.7034 14.9408 47.1549 14.9728C45.5453 15.0809 44.5923 14.2681 44.4522 12.6986C44.3961 12.0499 44.6043 11.4133 45.0448 10.8968H45.0408Z" fill="white"/>
<path d="M65.4935 34.8365C66.6186 33.5352 67.1631 31.8655 67.023 30.1318C66.8828 28.4061 66.09 26.8565 64.7847 25.7634C62.0941 23.5132 58.6226 23.6774 56.1842 26.1158C56.0681 26.2319 55.956 26.352 55.8439 26.4801C54.6146 27.8775 54.0261 29.4751 54.1462 31.1048C54.2663 32.7344 55.0791 34.2319 56.5005 35.4371C59.3313 37.8395 63.1191 37.5752 65.4935 34.8365ZM58.03 30.8205C57.978 30.1078 58.4024 29.4671 58.7668 29.0507C59.8198 27.8455 61.077 27.7374 62.2822 28.7464C62.7787 29.1628 63.0831 29.7634 63.1391 30.4401C63.1952 31.1248 62.983 31.7814 62.5465 32.2859C62.4905 32.35 62.4344 32.4101 62.3784 32.4661C61.4094 33.4351 60.1641 33.4431 59.015 32.4661C58.5946 32.1058 58.0781 31.5292 58.026 30.8205H58.03Z" fill="white"/>
<path d="M36.9891 23.4731C35.1793 23.4731 33.7139 24.9386 33.7139 26.7484C33.7139 28.5582 35.1793 30.0237 36.9891 30.0237C38.7989 30.0237 40.2644 28.5582 40.2644 26.7484C40.2644 24.9386 38.7989 23.4731 36.9891 23.4731ZM39.3595 26.5642C39.0952 26.7884 38.9471 26.0917 38.4386 25.4952C37.9301 24.8986 37.2574 24.6263 37.5217 24.4021C37.7859 24.1778 38.5627 24.338 39.0712 24.9346C39.5797 25.5312 39.6237 26.336 39.3595 26.5602V26.5642Z" fill="white"/>
<path d="M72.696 29.8033C72.1034 22.5881 66.7701 17.9075 59.7311 18.412C59.0024 18.464 58.2897 18.5921 57.597 18.7683C58.7582 16.7023 59.2546 14.2078 59.0264 11.429C58.4338 4.21382 53.1045 -0.470844 46.0615 0.0376625C42.7823 0.273898 39.7833 1.80342 37.6211 4.34195C37.2408 4.79039 36.9044 5.26688 36.5961 5.75537C34.3579 2.04767 30.3178 -0.0624347 25.469 0.277904C22.1898 0.514139 19.1908 2.04366 17.0246 4.58219C14.8785 7.1047 13.8535 10.2719 14.1418 13.5071C14.386 16.2578 15.3309 18.6041 16.8004 20.434C15.1668 19.8254 13.341 19.5491 11.375 19.6892C8.09174 19.9255 5.09675 21.455 2.93059 23.9935C0.784457 26.516 -0.240568 29.6832 0.0477189 32.9184C0.648317 39.7012 5.4531 44.0815 12.1358 44.0815C12.4681 44.0815 12.8004 44.0695 13.1408 44.0495C14.2258 43.9814 15.2429 43.7972 16.2038 43.529C15.3269 44.3338 14.5181 45.3027 13.8334 46.568C12.6362 48.7822 12.6683 51.1686 13.9335 53.4628C14.1177 53.7992 14.3179 54.1515 14.5542 54.3758C15.5111 55.2847 16.456 56.2736 17.461 57.0024C19.3549 58.3797 21.3529 59.1445 23.3629 59.7731C24.0797 59.9973 24.8044 60.1815 25.5251 60.3297C26.2298 60.4738 26.3939 60.0974 26.1697 58.9683C25.9215 57.7111 25.453 56.7341 24.7163 56.1615C24.2438 55.7972 23.7553 55.4849 23.2588 55.2326C21.9135 54.5519 20.5401 54.0034 19.2108 53.2306C18.354 52.7341 17.5011 52.0655 16.7363 51.2406C15.6913 50.1075 15.4991 48.63 16.0797 47.1526C16.5442 45.9754 17.3089 45.3988 18.0456 44.7782C18.1097 44.7261 18.2178 44.8142 18.3059 44.8343C18.2899 44.9904 18.2979 45.1746 18.2498 45.3027C17.6773 46.8643 17.7413 47.6531 18.6102 48.9023C18.8625 49.2667 19.1427 49.635 19.443 49.8392C20.6322 50.64 21.8134 51.565 23.0466 52.0975C27.0866 53.8472 31.1907 54.4678 35.3108 54.4999C38.6702 54.5279 41.9815 53.9113 45.2607 52.9543C47.7472 52.2296 50.1776 51.2527 52.4479 49.5229C53.1886 48.9584 53.9013 48.2016 54.5099 47.3167C55.3948 46.0315 55.3588 45.3468 54.606 43.6771C54.538 43.5289 54.5099 43.3328 54.4619 43.1606C54.598 43.1085 54.7582 42.9564 54.8663 43.0244C55.7031 43.557 56.4999 44.2377 57.0605 45.4389C57.573 46.54 57.565 47.4489 57.0925 48.566C56.9604 48.8783 56.7882 49.1506 56.612 49.4028C55.3828 51.1566 53.8693 52.0935 52.3158 52.7782C50.3618 53.635 48.3718 54.3317 46.3698 54.9083C44.576 55.4248 42.7462 55.6931 40.9324 56.0494C40.0115 56.2296 39.0706 56.2817 38.1577 56.5259C37.0766 56.8182 36.1877 57.659 35.7032 59.3167C35.3068 60.67 35.5991 61.3907 36.524 61.3227C37.7853 61.2306 39.0425 61.0023 40.3078 60.9263C42.6621 60.7821 44.9765 60.2736 47.2827 59.645C50.0095 58.9002 52.6721 57.8392 55.2146 56.1575C56.6521 55.2086 58.0214 54.0474 59.1466 52.2897C60.628 49.9754 61.0084 46.9804 58.9984 44.1456C58.55 43.513 58.0695 42.9724 57.573 42.4959C58.4979 42.6921 59.4709 42.8082 60.4919 42.8082C60.8202 42.8082 61.1566 42.7962 61.4969 42.7762C65.0925 42.548 68.0594 41.1946 70.0694 38.8643C72.0834 36.534 72.9883 33.4029 72.696 29.8033ZM40.5801 6.86447C42.0616 5.12674 44.1036 4.07768 46.3378 3.91753C46.5941 3.89751 46.8503 3.88951 47.0986 3.88951C51.6191 3.88951 54.7462 6.9005 55.1426 11.7413C55.3508 14.2718 54.7662 16.418 53.4489 17.9355C52.1356 19.453 50.1056 20.3419 47.575 20.506C42.486 20.8344 39.0545 17.9235 38.6101 12.9185C38.4179 10.7323 39.1146 8.58217 40.5801 6.86046V6.86447ZM19.9836 7.1007C21.4651 5.36297 23.5071 4.31393 25.7413 4.15377C25.9976 4.13375 26.2538 4.12574 26.5021 4.12574C31.0226 4.12574 34.1497 7.13673 34.5461 11.9776C34.7543 14.5081 34.1697 16.6542 32.8564 18.1717C31.5431 19.6932 29.5131 20.5781 26.9825 20.7423C21.9015 21.0706 18.4621 18.1597 18.0176 13.1547C17.8254 10.9685 18.5221 8.8144 19.9876 7.09669L19.9836 7.1007ZM12.8885 40.1616C7.81145 40.4939 4.36802 37.579 3.92357 32.5741C3.73138 30.3879 4.42809 28.2377 5.89355 26.516C7.37503 24.7783 9.42107 23.7293 11.6513 23.5691C11.9075 23.5491 12.1638 23.5411 12.412 23.5411C16.9325 23.5411 20.0597 26.5521 20.456 31.3929C20.6643 33.9234 20.0797 36.0655 18.7664 37.5871C17.453 39.1086 15.423 39.9934 12.8925 40.1576L12.8885 40.1616ZM28.5321 45.4829C27.3709 46.6961 26.0616 47.3407 24.7243 47.8813C24.0877 48.1375 23.467 48.0294 22.9265 47.2407C22.442 46.5279 22.3579 45.7992 22.7663 45.0585C23.0186 44.606 23.3349 44.2016 23.6712 43.9334C25.3409 42.616 27.1547 41.9954 28.9925 41.535C29.7213 41.3508 30.454 41.2267 31.3669 41.0385C30.5501 43.0645 29.5971 44.3698 28.5281 45.4869L28.5321 45.4829ZM49.9254 46.2677C49.3088 46.9844 48.6081 47.565 47.8913 48.0054C45.5931 49.4148 43.1426 49.8953 40.7002 50.4078C38.7302 50.8202 39.2828 49.2427 41.2127 48.598C45.6091 47.2727 46.9544 45.3548 46.4179 44.542C45.8813 43.7292 45.6571 43.6851 45.2647 43.2847C42.0535 40.6261 39.9795 38.2557 39.487 32.7542C39.2147 30.8043 34.8023 30.2237 34.3619 32.8383C34.0295 34.8203 34.0496 35.1526 33.8053 35.7812C33.5531 36.4379 32.9124 37.1266 32.48 37.2067C30.51 37.559 28.5401 37.9114 26.5861 38.3838C24.9645 38.7762 23.3709 39.3208 21.8094 40.0255C23.7513 37.7072 24.6322 34.6241 24.3439 31.0846C24.1077 28.2257 23.1227 25.7753 21.5892 23.8734C22.9946 24.3939 24.5521 24.6742 26.2338 24.6742C26.5661 24.6742 26.8985 24.6622 27.2388 24.6422C30.8344 24.4099 33.8013 23.0606 35.8113 20.7303C36.1797 20.3058 36.496 19.8414 36.7923 19.3649C38.9064 22.5561 42.4619 24.434 46.8303 24.434C47.1586 24.434 47.495 24.4219 47.8353 24.4019C48.7082 24.3459 49.541 24.2217 50.3298 24.0376C48.8563 26.3038 48.1716 28.9504 48.4119 31.6451C48.6681 34.544 49.6971 37.0025 51.3108 38.8683C49.9254 38.3598 48.524 37.9874 47.1106 37.7112C45.4529 37.3869 46.1937 37.4829 44.532 37.3268C43.7753 37.2547 43.579 37.8673 43.9154 39.0205C44.2797 40.2697 44.9284 40.8863 45.7332 41.0785C46.514 41.2667 48.4519 42.0955 49.7132 43.2487C50.6461 44.1015 50.7502 45.3107 49.9254 46.2717V46.2677ZM67.1265 36.3178C65.8132 37.8353 63.7832 38.7242 61.2527 38.8883C56.1796 39.2167 52.7322 36.3058 52.2877 31.3008C52.0955 29.1146 52.7922 26.9645 54.2577 25.2428C55.7392 23.505 57.7812 22.456 60.0154 22.2958C60.2717 22.2758 60.5279 22.2678 60.7762 22.2678C65.2967 22.2678 68.4238 25.2788 68.8202 30.1196C69.0284 32.6501 68.4438 34.7923 67.1305 36.3138L67.1265 36.3178Z" fill="white"/>
</svg>
