<svg width="600" height="399" viewBox="0 0 600 399" fill="none" xmlns="http://www.w3.org/2000/svg">
<g clip-path="url(#clip0_453_14)">
<path d="M303.955 111.993C298.605 103.144 292.266 93.6954 282.338 90.8058C270.841 87.4595 259.03 94.1071 249.012 100.667C219.052 120.285 190.2 141.546 162.588 164.352L162.618 164.695C184.115 163.212 205.612 161.73 227.109 160.247C242.641 159.176 258.706 157.957 272.431 150.608C277.64 147.82 282.717 144.095 288.619 143.836C295.951 143.513 302.345 148.635 307.37 153.986C337.091 185.64 345.692 234.046 379.036 261.856C358.01 209.995 332.905 159.884 303.955 111.993Z" fill="#F2F2F2"/>
<path d="M486.649 380.473C483.362 376.322 482.019 375.35 478.777 371.161C452.379 337.014 427.567 301.715 404.341 265.261C388.565 240.504 373.572 215.271 359.36 189.562C352.594 177.34 346.014 165.022 339.619 152.608C334.657 142.983 329.806 133.299 325.065 123.559C323.709 120.777 322.392 117.982 321.081 115.18C317.992 108.593 314.961 101.973 311.706 95.4754C307.997 88.0693 303.482 80.3049 296.672 75.3291C293.572 72.9717 289.866 71.5453 285.986 71.2167C280.441 70.8585 275.326 73.1482 270.517 75.6489C235.332 93.998 202.393 117.003 172.599 143.181C142.73 169.417 116.031 199.058 93.0476 231.499C92.3444 232.503 90.6817 231.543 91.3914 230.533C94.186 226.58 97.036 222.67 99.9413 218.803C136.067 170.75 180.364 129.427 230.805 96.7226C239.291 91.2223 247.937 85.98 256.742 80.9956C261.18 78.4821 265.638 76.0006 270.171 73.6726C274.616 71.3893 279.335 69.3363 284.413 69.2596C301.692 68.991 310.638 88.5617 316.783 101.73C318.715 105.875 320.669 110.006 322.647 114.125C330.123 129.763 337.886 145.257 345.937 160.609C350.906 170.087 355.984 179.51 361.17 188.878C377.31 218.049 394.465 246.629 412.635 274.618C436.706 311.694 460.584 344.446 488.005 379.117C488.759 380.077 487.41 381.445 486.649 380.473Z" fill="#E4E4E4"/>
<path d="M170.891 133.517C169.888 132.398 168.89 131.278 167.88 130.159C159.912 121.346 151.362 112.635 140.42 107.582C135.203 105.097 129.508 103.777 123.73 103.713C117.757 103.732 111.919 105.299 106.4 107.493C103.791 108.535 101.239 109.719 98.7261 110.979C95.8547 112.424 93.0345 113.965 90.2274 115.519C84.9579 118.436 79.7568 121.48 74.6241 124.652C64.4114 130.965 54.5186 137.759 44.9456 145.035C39.983 148.809 35.1229 152.706 30.3652 156.727C25.94 160.462 21.6044 164.297 17.3582 168.233C16.4502 169.07 15.0944 167.715 16.0025 166.877C17.1215 165.834 18.2535 164.798 19.3854 163.775C22.5828 160.884 25.8314 158.049 29.1312 155.269C35.1485 150.19 41.3217 145.308 47.6506 140.622C57.4923 133.331 67.6728 126.535 78.1921 120.233C83.4488 117.086 88.7778 114.072 94.1792 111.19C95.8101 110.32 97.46 109.469 99.1289 108.663C102.916 106.753 106.851 105.151 110.895 103.873C116.625 102.019 122.686 101.424 128.667 102.127C134.441 102.967 140.004 104.892 145.063 107.8C155.806 113.805 164.139 123.092 172.247 132.155C173.066 133.076 171.716 134.438 170.891 133.517Z" fill="#E4E4E4"/>
<path d="M391.016 224.846L416.759 215.429L429.541 210.753C433.704 209.23 437.857 207.497 442.16 206.406C445.9 205.338 449.87 205.388 453.582 206.552C456.891 207.777 459.921 209.655 462.49 212.075C465.115 214.492 467.558 217.101 469.797 219.879C472.58 223.224 475.322 226.604 478.076 229.972C489.442 243.875 500.734 257.838 511.952 271.861C523.169 285.884 534.312 299.966 545.379 314.108C556.474 328.285 567.492 342.521 578.434 356.816C579.774 358.567 581.113 360.319 582.452 362.072C583.191 363.041 584.858 362.086 584.108 361.104C573.085 346.665 561.986 332.285 550.81 317.964C539.606 303.609 528.325 289.315 516.966 275.082C505.608 260.849 494.173 246.678 482.661 232.569C479.793 229.053 476.92 225.542 474.043 222.035C471.616 219.076 469.216 216.086 466.553 213.332C461.667 208.277 455.561 203.81 448.253 203.689C443.956 203.618 439.798 204.982 435.806 206.426C431.502 207.983 427.209 209.569 422.91 211.142L396.987 220.625L390.506 222.995C389.356 223.416 389.853 225.271 391.016 224.846Z" fill="#E4E4E4"/>
<path d="M137.032 118.672C123.95 111.948 107.196 113.265 95.1748 121.666C118.105 125.623 140.785 130.917 163.097 137.521C153.832 132.09 146.584 123.582 137.032 118.672Z" fill="#F2F2F2"/>
<path d="M95.0459 121.643L92.5273 123.69C93.3792 122.974 94.2649 122.302 95.1746 121.666C95.1317 121.659 95.0888 121.65 95.0459 121.643Z" fill="#F2F2F2"/>
<path d="M461.521 224.94C458.987 221.854 456.247 218.624 452.457 217.371L448.918 217.511C475.857 265.118 512.239 306.718 555.832 339.755C524.395 301.483 492.958 263.211 461.521 224.94Z" fill="#F2F2F2"/>
<path d="M241.463 199.49C243.101 205.44 246.79 210.62 251.879 214.112C253.846 215.451 256.173 216.736 256.846 219.019C257.2 220.475 256.982 222.011 256.237 223.31C255.493 224.593 254.588 225.775 253.543 226.827L253.448 227.184C248.566 224.291 243.922 220.631 241.225 215.637C238.528 210.643 238.152 204.099 241.463 199.49Z" fill="#F2F2F2"/>
<path d="M403.996 341.115C405.634 347.065 409.323 352.245 414.412 355.737C416.379 357.076 418.707 358.361 419.379 360.644C419.734 362.1 419.515 363.636 418.77 364.935C418.026 366.217 417.121 367.4 416.077 368.452L415.981 368.809C411.099 365.916 406.455 362.256 403.758 357.262C401.062 352.268 400.685 345.724 403.996 341.115Z" fill="#F2F2F2"/>
<path d="M79.6271 331.347C81.2647 337.298 84.9542 342.477 90.0426 345.969C92.0098 347.309 94.3373 348.594 95.0103 350.877C95.3643 352.332 95.1462 353.868 94.4009 355.168C93.657 356.45 92.7518 357.632 91.7074 358.685L91.6121 359.042C86.7302 356.149 82.0858 352.488 79.3891 347.495C76.6924 342.501 76.316 335.956 79.6271 331.347Z" fill="#F2F2F2"/>
<path d="M452.895 71.1614C472.543 71.1614 488.471 55.2314 488.471 35.5807C488.471 15.93 472.543 0 452.895 0C433.247 0 417.319 15.93 417.319 35.5807C417.319 55.2314 433.247 71.1614 452.895 71.1614Z" fill="#0284C5"/>
<path d="M517.096 8.28148C499.855 5.95063 480.17 15.2711 475.702 32.0881C474.575 29.0981 472.528 26.5435 469.855 24.7934C467.182 23.0433 464.022 22.1884 460.832 22.3522C457.641 22.5159 454.585 23.6898 452.105 25.7043C449.626 27.7188 447.85 30.4696 447.036 33.5593L449.01 34.9732C485.958 42.9644 524.206 42.7915 561.08 34.4664C549.087 21.8605 534.338 10.6123 517.096 8.28148Z" fill="#F0F0F0"/>
<path d="M443.154 55.7224C425.912 53.3916 406.228 62.712 401.759 79.529C400.633 76.539 398.586 73.9844 395.913 72.2343C393.24 70.4843 390.08 69.6293 386.889 69.7931C383.699 69.9568 380.643 71.1308 378.163 73.1453C375.683 75.1598 373.908 77.9105 373.094 81.0002L375.068 82.4141C412.016 90.4053 450.263 90.2324 487.138 81.9074C475.145 69.3014 460.396 58.0532 443.154 55.7224Z" fill="#F0F0F0"/>
<path d="M593.638 64.6928C593.567 64.693 593.496 64.6819 593.428 64.6601C408.986 6.32305 246.427 13.9517 142.534 30.624C128.395 32.8921 114.219 35.5117 100.398 38.4106C96.87 39.1499 93.2095 39.9422 89.5186 40.7673C85.1108 41.7491 80.7616 42.7601 76.5912 43.7712C74.79 44.1977 73.0241 44.6276 71.2933 45.0609C68.6716 45.7082 66.0115 46.3826 63.1599 47.1239C59.9735 47.9456 56.736 48.8074 53.5353 49.6856C53.5236 49.6897 53.5117 49.6932 53.4995 49.6958L53.4999 49.6965C49.8847 50.6837 46.2885 51.6996 42.8109 52.7141C40.9287 53.2577 39.1112 53.7939 37.3703 54.3233C37.1758 54.3771 37.0035 54.4289 36.8288 54.4821L36.4548 54.5958C36.2381 54.6619 36.0242 54.7266 35.8103 54.788L35.7967 54.792L35.797 54.7927L35.231 54.9686C34.5559 55.173 33.8971 55.3726 33.2493 55.5715C16.1275 60.8503 6.71514 64.6057 6.62215 64.6425C6.53712 64.6766 6.44622 64.6935 6.35462 64.6925C6.26302 64.6914 6.17252 64.6724 6.08829 64.6363C6.00407 64.6003 5.92775 64.548 5.86372 64.4825C5.79969 64.417 5.7492 64.3395 5.71511 64.2545C5.68103 64.1694 5.66403 64.0785 5.66508 63.9869C5.66614 63.8953 5.68522 63.8048 5.72124 63.7205C5.75727 63.6363 5.80952 63.56 5.87504 63.4959C5.94055 63.4319 6.01804 63.3814 6.10307 63.3473C6.19674 63.3105 15.6551 59.5361 32.8392 54.2375C33.4894 54.0379 34.1499 53.8383 34.827 53.6332L35.3529 53.4697C35.3709 53.4629 35.389 53.4574 35.4074 53.452C35.6203 53.3913 35.8328 53.3266 36.0488 53.2612L36.4234 53.1474C36.6101 53.0909 36.794 53.035 36.9824 52.9832C38.7113 52.4573 40.5349 51.9197 42.4219 51.374C45.9009 50.3588 49.5004 49.343 53.1184 48.3544C53.1296 48.3503 53.1412 48.3476 53.1525 48.3442C56.3644 47.4633 59.6138 46.5973 62.8104 45.7729C65.6665 45.031 68.3317 44.3551 70.9578 43.7065C72.6959 43.2739 74.4653 42.8431 76.2659 42.4141C80.4411 41.4016 84.7991 40.3892 89.2148 39.4054C92.9115 38.5797 96.5781 37.7853 100.112 37.0453C113.954 34.1416 128.153 31.5179 142.313 29.2464C246.355 12.5502 409.147 4.90932 593.848 63.3302C594.007 63.3803 594.143 63.4857 594.231 63.6271C594.319 63.7686 594.353 63.9369 594.328 64.1015C594.302 64.2661 594.219 64.4163 594.092 64.5247C593.966 64.6332 593.805 64.6928 593.638 64.6928Z" fill="#CCCCCC"/>
<path d="M183.452 292.906C183.211 292.199 182.804 291.561 182.267 291.043C182.068 290.859 181.853 290.693 181.625 290.548C179.804 289.334 177.084 289.062 175.354 290.548C175.179 290.699 175.018 290.865 174.872 291.043C174.356 291.678 173.826 292.299 173.282 292.906C172.389 293.924 171.475 294.908 170.52 295.864C170.247 296.129 169.975 296.401 169.696 296.666C169.536 296.827 169.376 296.98 169.215 297.134C168.601 297.72 167.973 298.285 167.339 298.843C167.004 299.143 166.669 299.436 166.327 299.722C165.818 300.148 165.309 300.573 164.793 300.985C164.744 301.02 164.695 301.054 164.646 301.096C164.632 301.103 164.625 301.117 164.611 301.124C164.604 301.124 164.597 301.124 164.59 301.138C164.571 301.146 164.555 301.158 164.541 301.173C164.388 301.278 164.283 301.347 164.207 301.41C164.234 301.396 164.262 301.375 164.29 301.361C164.165 301.459 164.032 301.557 163.907 301.654C162.686 302.554 161.437 303.42 160.161 304.229C157.002 306.25 153.685 308.012 150.241 309.496C150.011 309.587 149.774 309.685 149.537 309.775C140.52 313.47 130.74 314.911 121.041 313.975C120.05 313.898 119.06 313.794 118.069 313.661C116.925 313.494 115.788 313.291 114.658 313.061C110.356 312.203 106.147 310.932 102.088 309.266C97.0113 306.941 92.1828 304.108 87.6764 300.81C86.9788 300.315 86.2743 299.82 85.5697 299.338C86.3719 297.371 87.1602 295.403 87.9275 293.422C88.3112 292.466 88.6809 291.51 89.0436 290.548C91.8967 283.132 94.5753 275.646 97.1424 268.132C99.7373 260.52 102.186 252.865 104.488 245.165C104.725 244.384 104.955 243.602 105.178 242.821C106.385 238.753 107.543 234.677 108.652 230.591C108.757 230.193 108.869 229.802 108.966 229.405C109.287 228.233 109.601 227.061 109.908 225.889C110.605 223.244 109.029 220.084 106.253 219.449C104.916 219.106 103.498 219.296 102.299 219.978C101.099 220.66 100.211 221.781 99.821 223.105C99.5211 224.235 99.2211 225.358 98.9142 226.489C97.4423 231.951 95.8937 237.395 94.2684 242.821C94.0312 243.602 93.7941 244.384 93.5569 245.165C89.9714 256.983 86.0348 268.683 81.7471 280.264C81.2309 281.666 80.7077 283.064 80.1775 284.457C79.9194 285.141 79.6613 285.825 79.3963 286.508C78.887 287.855 78.3639 289.201 77.8407 290.548C77.5407 291.336 77.2338 292.124 76.9269 292.906C76.7246 293.401 76.5293 293.896 76.3339 294.385C74.345 293.671 72.2844 293.175 70.1884 292.906L69.8535 292.864C68.2285 292.668 66.585 292.682 64.9636 292.906C62.5368 293.189 60.2018 294.002 58.1237 295.287C56.0457 296.572 54.2752 298.298 52.9375 300.343C49.6101 305.582 49.652 313.075 54.3187 317.526C59.1249 322.11 66.4006 322.075 72.0578 319.208C75.0558 317.585 77.5837 315.216 79.3963 312.329C80.0907 311.282 80.7287 310.199 81.3076 309.085C81.4541 309.182 81.6006 309.28 81.7471 309.385C82.3051 309.775 82.8632 310.173 83.4143 310.564C86.6252 312.89 90.0089 314.968 93.536 316.78C101.12 320.551 109.284 323.02 117.686 324.084C117.874 324.105 118.055 324.133 118.244 324.154C119.172 324.273 120.106 324.363 121.041 324.44C134.45 325.451 147.875 322.706 159.812 316.515C160.823 315.991 161.826 315.443 162.818 314.868C164.36 313.975 165.867 313.026 167.339 312.022C168.141 311.478 168.922 310.926 169.696 310.347C173.08 307.855 176.234 305.065 179.121 302.01C180.216 300.859 181.264 299.671 182.267 298.445C183.214 297.443 183.76 296.127 183.801 294.748C183.796 294.118 183.678 293.494 183.452 292.906ZM67.9422 309.524C68.0887 309.419 68.2352 309.308 68.3747 309.196C68.3329 309.301 68.1305 309.419 67.9422 309.524ZM70.1814 307.271C70.0209 307.452 69.8745 307.633 69.714 307.815C69.2259 308.361 68.7015 308.874 68.1445 309.35C68.0678 309.419 67.9841 309.489 67.9004 309.552C67.8994 309.552 67.8985 309.552 67.8976 309.552C67.8968 309.553 67.896 309.553 67.8954 309.554C67.8947 309.555 67.8942 309.555 67.8939 309.556C67.8935 309.557 67.8933 309.558 67.8934 309.559C67.7926 309.604 67.6947 309.655 67.6004 309.712C67.3004 309.894 66.9935 310.061 66.6796 310.215C66.065 310.441 65.4327 310.616 64.7892 310.738C64.2947 310.774 63.7985 310.779 63.3034 310.752H63.2894C62.9478 310.676 62.6102 310.583 62.278 310.473C62.1105 310.389 61.9501 310.292 61.7897 310.194C61.7269 310.138 61.671 310.082 61.6362 310.047C61.568 309.985 61.5051 309.917 61.4479 309.845C61.4479 309.844 61.4477 309.843 61.4474 309.842C61.447 309.841 61.4465 309.841 61.4459 309.84C61.4452 309.839 61.4444 309.839 61.4436 309.838C61.4427 309.838 61.4418 309.838 61.4409 309.838C61.3641 309.698 61.2804 309.559 61.2037 309.419C61.1998 309.416 61.1973 309.411 61.1968 309.405C61.1409 309.231 61.0921 309.05 61.0503 308.868C61.0351 308.55 61.0375 308.231 61.0572 307.912C61.1508 307.467 61.2767 307.028 61.4339 306.601C61.5752 306.298 61.7359 306.004 61.9152 305.722C61.9292 305.694 61.999 305.582 62.0757 305.457C62.0827 305.45 62.0827 305.45 62.0827 305.443C62.1873 305.324 62.2919 305.199 62.4036 305.087C62.5919 304.878 62.7942 304.696 62.9965 304.508C63.3899 304.25 63.7975 304.015 64.2172 303.803C64.8832 303.567 65.5665 303.382 66.2611 303.252C67.2853 303.171 68.3148 303.18 69.3374 303.28C70.3059 303.448 71.2616 303.684 72.1974 303.985C71.6302 305.085 70.9845 306.144 70.2651 307.152C70.2372 307.194 70.2093 307.236 70.1814 307.271ZM62.4244 304.975C62.363 305.074 62.2904 305.165 62.2082 305.247C62.2635 305.145 62.3368 305.052 62.4244 304.975Z" fill="#3F3D56"/>
<path d="M162.484 221.654C162.421 223.844 162.358 226.035 162.295 228.226C162.163 233.089 162.026 237.954 161.884 242.821C161.737 248.298 161.584 253.772 161.423 259.244C161.347 262.069 161.268 264.895 161.186 267.72C160.97 275.332 160.756 282.941 160.545 290.548C160.524 291.336 160.496 292.118 160.475 292.906C160.37 296.68 160.265 300.455 160.161 304.229C160.042 308.324 159.926 312.42 159.812 316.515C159.728 319.584 159.642 322.656 159.554 325.731C158.926 348.007 158.298 370.283 157.671 392.56C157.644 393.939 157.084 395.255 156.109 396.23C155.133 397.206 153.818 397.766 152.439 397.792C151.055 397.781 149.73 397.226 148.752 396.247C147.773 395.268 147.218 393.944 147.207 392.56C147.556 380.03 147.909 367.5 148.267 354.97C148.581 343.64 148.9 332.31 149.223 320.98C149.328 317.247 149.432 313.512 149.537 309.775C149.697 304.152 149.855 298.529 150.011 292.906C150.032 292.118 150.06 291.336 150.081 290.548C150.095 289.857 150.116 289.173 150.137 288.483C150.444 277.564 150.751 266.644 151.058 255.721C151.183 251.423 151.304 247.123 151.42 242.821C151.56 237.916 151.699 233.014 151.839 228.114C151.902 225.958 151.957 223.81 152.02 221.654C152.047 220.274 152.606 218.959 153.582 217.983C154.557 217.008 155.873 216.448 157.252 216.421C158.636 216.433 159.96 216.987 160.939 217.966C161.918 218.945 162.473 220.27 162.484 221.654Z" fill="#3F3D56"/>
<path d="M449.483 223.106C443.997 243.882 437.44 264.36 429.839 284.459C427.741 290.003 425.595 295.536 423.301 301.002L423.829 299.752C422.805 302.355 421.497 304.838 419.93 307.155C419.823 307.305 419.714 307.453 419.604 307.599C420.146 306.906 420.249 306.769 419.913 307.188C419.736 307.398 419.561 307.609 419.377 307.813C418.889 308.36 418.365 308.873 417.809 309.35C417.668 309.47 417.526 309.587 417.382 309.702L418.036 309.193C417.96 309.373 417.427 309.61 417.261 309.712C416.724 310.036 416.163 310.32 415.584 310.562L416.834 310.034C415.884 310.417 414.894 310.689 413.882 310.844L415.273 310.657C414.279 310.795 413.271 310.805 412.275 310.689L413.666 310.876C412.85 310.764 412.052 310.549 411.29 310.236L412.54 310.764C412.134 310.587 411.742 310.378 411.369 310.139C411.18 310.015 410.598 309.575 411.359 310.156C412.149 310.76 411.46 310.208 411.298 310.047C411.162 309.913 411.04 309.768 410.907 309.632C410.292 309.001 411.602 310.718 411.184 309.98C410.96 309.61 410.756 309.229 410.571 308.838L411.099 310.088C410.859 309.493 410.688 308.872 410.591 308.238L410.778 309.629C410.678 308.841 410.677 308.043 410.776 307.254L410.589 308.645C410.717 307.764 410.95 306.902 411.283 306.077L410.755 307.327C410.987 306.772 411.262 306.236 411.577 305.724C411.722 305.459 411.892 305.208 412.085 304.976C412.119 304.987 411.2 306.032 411.688 305.504C411.816 305.366 411.935 305.221 412.064 305.084C412.271 304.865 412.492 304.665 412.71 304.458C413.438 303.764 411.69 305.132 412.531 304.583C413.14 304.182 413.782 303.832 414.448 303.537L413.199 304.064C414.316 303.605 415.487 303.291 416.683 303.13L415.292 303.316C416.791 303.144 418.305 303.162 419.799 303.37L418.408 303.183C420.3 303.47 422.149 303.99 423.913 304.732L422.664 304.204C426.423 305.818 429.753 308.215 433.077 310.565C436.287 312.89 439.67 314.968 443.196 316.779C450.78 320.551 458.944 323.021 467.347 324.086C479.398 325.563 491.627 323.989 502.911 319.509C514.196 315.029 524.174 307.786 531.932 298.446C532.879 297.442 533.424 296.125 533.464 294.746C533.454 293.36 532.905 292.033 531.932 291.046C530.013 289.284 526.387 288.786 524.533 291.046C522.777 293.191 520.888 295.224 518.878 297.134C517.94 298.025 516.977 298.887 515.989 299.723C515.424 300.2 514.852 300.668 514.272 301.126C513.998 301.343 513.143 301.92 514.456 300.988C514.155 301.202 513.866 301.435 513.569 301.654C509.176 304.893 504.415 307.601 499.386 309.722L500.636 309.195C495.239 311.459 489.572 313.012 483.775 313.815L485.166 313.628C479.203 314.413 473.162 314.404 467.201 313.602L468.592 313.789C462.632 312.97 456.804 311.382 451.252 309.065L452.502 309.593C447.145 307.222 442.061 304.277 437.339 300.808C434.882 298.989 432.291 297.358 429.587 295.929C426.438 294.32 423.028 293.284 419.516 292.867C412.932 292.092 406.222 294.657 402.603 300.346C399.271 305.582 399.314 313.074 403.979 317.526C408.784 322.112 416.06 322.073 421.722 319.205C427.176 316.442 430.451 310.704 432.754 305.292C437.938 293.114 442.527 280.655 446.803 268.133C451.034 255.744 454.87 243.229 458.312 230.589C458.738 229.024 459.159 227.457 459.573 225.888C460.271 223.245 458.693 220.083 455.919 219.451C454.581 219.107 453.163 219.296 451.962 219.978C450.761 220.659 449.873 221.781 449.483 223.106Z" fill="#3F3D56"/>
<path d="M501.684 221.653L499.801 288.484L497.927 354.967L496.868 392.56C496.88 393.944 497.435 395.268 498.414 396.247C499.392 397.226 500.716 397.781 502.1 397.792C503.479 397.766 504.794 397.206 505.77 396.23C506.745 395.255 507.305 393.939 507.332 392.56L509.215 325.729L511.088 259.246L512.147 221.653C512.136 220.269 511.581 218.945 510.602 217.966C509.623 216.988 508.3 216.433 506.916 216.421C505.536 216.448 504.221 217.007 503.246 217.983C502.27 218.959 501.711 220.274 501.684 221.653Z" fill="#3F3D56"/>
<path opacity="0.2" d="M320.596 373.901H322.221V299.92H360.119V298.299H322.221V267.083H351.488C351.059 266.537 350.617 265.998 350.163 265.466H322.221V244.848C321.683 244.619 321.142 244.399 320.596 244.19V265.466H288.751V239.049C288.205 239.074 287.668 239.112 287.126 239.158V265.466H261.721V245.757C261.175 245.998 260.638 246.252 260.105 246.519V265.466H238.748V267.083H260.105V298.299H238.748V299.92H260.105V373.901H261.721V299.92C265.057 299.919 268.361 300.576 271.444 301.853C274.527 303.129 277.328 305.001 279.687 307.36C282.046 309.72 283.917 312.521 285.194 315.604C286.47 318.687 287.127 321.992 287.126 325.329V373.901H288.751V299.92H320.596V373.901ZM261.721 298.299V267.083H287.126V298.299H261.721ZM288.751 298.299V267.083H289.388C293.487 267.083 297.545 267.891 301.332 269.46C305.118 271.029 308.559 273.328 311.457 276.227C314.354 279.125 316.653 282.567 318.221 286.354C319.79 290.141 320.597 294.2 320.596 298.299H288.751Z" fill="black"/>
<path d="M310.675 351.719C308.63 360.843 303.731 369.079 296.689 375.23C296.173 375.676 295.657 376.109 295.12 376.534C293.815 376.653 292.52 376.774 291.234 376.897C290.167 376.995 289.114 377.1 288.067 377.197L287.879 377.218L287.746 376.074L287.216 371.442C285.16 368.083 283.885 364.306 283.486 360.388C283.088 356.47 283.576 352.513 284.914 348.809C286.756 343.842 290.09 339.454 293.369 335.1C297.896 329.087 302.298 323.142 302.458 315.81C304.686 318.661 306.538 321.787 307.969 325.11C306.618 325.746 305.405 326.639 304.397 327.74C304.111 328.054 303.825 328.494 304.021 328.87C304.188 329.191 304.607 329.268 304.969 329.31C305.841 329.4 306.72 329.491 307.592 329.582C308.29 329.659 308.987 329.728 309.685 329.805C310.529 332.575 311.101 335.421 311.394 338.303C311.864 342.784 311.621 347.313 310.675 351.719Z" fill="#3F3D56"/>
<path d="M333.834 333.433C329.719 336.426 327.312 340.731 325.442 345.475C323.526 346.088 321.803 347.189 320.441 348.67C320.155 348.984 319.869 349.423 320.064 349.8C320.232 350.121 320.65 350.198 321.013 350.24C321.885 350.33 322.764 350.421 323.636 350.512C321.766 356.121 320.05 361.925 316.744 366.663C314.545 369.79 311.678 372.39 308.352 374.274C307.445 374.791 306.509 375.254 305.548 375.662C302.004 375.934 298.528 376.225 295.119 376.534C293.815 376.653 292.52 376.774 291.234 376.897C290.166 376.995 289.113 377.1 288.067 377.197C288.06 376.814 288.06 376.43 288.067 376.046C288.287 365.824 292.047 355.996 298.705 348.237C299.019 347.875 299.339 347.519 299.667 347.163C303.04 343.56 307.006 340.563 311.393 338.303C318.306 334.708 326.054 333.027 333.834 333.433Z" fill="#0284C5"/>
<path d="M292.441 373.318L291.639 375.69L291.234 376.897C290.167 376.995 289.114 377.1 288.067 377.197L287.879 377.218C286.721 377.337 285.57 377.455 284.419 377.574C284.119 377.225 283.819 376.869 283.526 376.507C276.245 367.688 272.75 356.346 273.805 344.958C274.86 333.571 280.378 323.064 289.155 315.733C288.235 320.554 289.309 325.173 291.074 329.756C290.885 329.833 290.704 329.91 290.53 329.994C289.179 330.629 287.966 331.523 286.958 332.624C286.672 332.938 286.386 333.377 286.581 333.754C286.749 334.075 287.167 334.152 287.53 334.193C288.402 334.284 289.281 334.375 290.153 334.466C290.851 334.542 291.548 334.612 292.246 334.689C292.574 334.724 292.901 334.759 293.229 334.793C293.278 334.898 293.32 334.996 293.369 335.1C295.357 339.412 297.498 343.744 298.705 348.237C299.008 349.365 299.245 350.508 299.417 351.663C299.954 355.565 299.606 359.537 298.398 363.286C297.191 367.035 295.154 370.464 292.441 373.318Z" fill="#0284C5"/>
<path d="M362.656 272.13C356.651 260.415 347.347 250.557 336.405 243.314C325.428 236.08 312.832 231.675 299.739 230.491C298.023 230.335 296.302 230.244 294.578 230.217C292.54 230.186 261.886 239.03 251.617 246.251C241.353 253.384 232.91 262.83 226.969 273.827C221.039 284.884 218.122 297.308 218.511 309.85C219.019 322.467 222.536 334.78 228.767 345.762C234.913 356.709 243.641 365.989 254.189 372.794C264.889 379.621 275.636 397.725 288.269 398.364C300.996 399.008 315.512 381.931 327.12 376.746C338.728 371.517 348.764 363.338 356.226 353.022C363.478 342.912 368.169 331.194 369.898 318.873C371.693 306.257 370.856 293.246 366.549 281.188C365.443 278.089 364.143 275.064 362.656 272.13C361.415 269.684 357.776 268.784 355.498 270.253C354.325 270.975 353.475 272.123 353.125 273.456C352.776 274.789 352.953 276.206 353.621 277.412C354.35 278.848 355.028 280.308 355.655 281.791L355.127 280.541C357.499 286.245 359.112 292.235 359.924 298.358L359.737 296.967C360.601 303.611 360.586 310.339 359.691 316.978L359.878 315.587C358.974 322.226 357.202 328.717 354.608 334.894L355.136 333.644C353.801 336.796 352.246 339.85 350.482 342.782C349.587 344.264 348.639 345.711 347.635 347.123C347.195 347.743 346.74 348.352 346.283 348.959C345.685 349.751 347.097 347.924 346.48 348.701C346.374 348.833 346.27 348.966 346.164 349.098C345.848 349.494 345.526 349.887 345.2 350.275C343.026 352.871 340.652 355.293 338.102 357.52C337.466 358.074 336.82 358.616 336.164 359.146C335.837 359.41 335.514 359.685 335.173 359.931C335.186 359.921 336.275 359.094 335.63 359.574C335.428 359.725 335.227 359.879 335.024 360.029C333.67 361.032 332.281 361.983 330.856 362.884C327.575 364.951 324.133 366.751 320.563 368.265L321.813 367.737C315.655 370.33 309.182 372.102 302.562 373.006L303.953 372.819C297.336 373.713 290.63 373.725 284.01 372.854L285.401 373.041C279.384 372.233 273.499 370.642 267.895 368.308L269.145 368.835C265.899 367.465 262.769 365.834 259.787 363.958C258.31 363.028 256.872 362.04 255.473 360.995C255.273 360.846 255.075 360.695 254.877 360.544C254.238 360.062 255.335 360.9 255.344 360.906C254.973 360.639 254.615 360.354 254.273 360.051C253.597 359.501 252.932 358.938 252.277 358.362C249.657 356.054 247.211 353.557 244.958 350.89C244.394 350.223 243.841 349.546 243.302 348.86C243.068 348.562 242.641 347.959 243.584 349.229C243.46 349.062 243.331 348.898 243.206 348.732C242.905 348.333 242.608 347.931 242.316 347.526C241.291 346.109 240.318 344.656 239.395 343.169C237.309 339.802 235.488 336.278 233.95 332.628L234.477 333.878C231.96 327.888 230.238 321.593 229.357 315.155L229.544 316.546C228.748 310.612 228.737 304.598 229.51 298.661L229.323 300.052C230.115 294.302 231.662 288.682 233.923 283.337L233.396 284.587C234.818 281.24 236.496 278.008 238.415 274.92C239.375 273.374 240.393 271.866 241.469 270.395C241.713 270.061 241.96 269.729 242.21 269.399C242.436 269.101 243.057 268.357 241.997 269.67C242.101 269.542 242.201 269.409 242.303 269.279C242.893 268.532 243.498 267.796 244.117 267.071C246.459 264.329 248.996 261.759 251.708 259.382C252.394 258.782 253.09 258.194 253.797 257.618C254.119 257.357 254.442 257.098 254.768 256.842C254.898 256.739 255.03 256.639 255.159 256.536C253.766 257.645 254.772 256.837 255.089 256.6C256.546 255.508 258.042 254.471 259.578 253.488C262.991 251.305 266.581 249.413 270.311 247.831L269.061 248.359C274.474 246.086 298.457 240.72 302.819 241.306L301.428 241.119C307.84 242.014 314.106 243.745 320.067 246.269L318.818 245.742C321.838 247.025 324.774 248.5 327.607 250.157C329.022 250.987 330.41 251.862 331.77 252.782C332.413 253.218 333.05 253.663 333.68 254.118C333.995 254.346 334.308 254.576 334.619 254.808C334.792 254.937 334.963 255.068 335.136 255.198C335.861 255.741 334.137 254.41 334.897 255.012C337.441 257.01 339.856 259.166 342.13 261.467C343.246 262.604 344.324 263.778 345.364 264.987C345.897 265.607 346.42 266.237 346.931 266.876C347.185 267.193 348.051 268.342 346.99 266.935C347.249 267.279 347.511 267.62 347.767 267.967C349.972 270.951 351.929 274.11 353.621 277.412C354.872 279.852 358.495 280.762 360.779 279.289C361.953 278.566 362.803 277.419 363.153 276.086C363.503 274.752 363.325 273.335 362.656 272.13Z" fill="#3F3D56"/>
<path d="M301.696 357.52C301.156 357.545 300.621 357.403 300.164 357.114C299.707 356.825 299.351 356.402 299.142 355.903C298.934 355.404 298.883 354.853 298.998 354.325C299.113 353.797 299.388 353.317 299.785 352.95C299.851 352.685 299.899 352.495 299.965 352.231C299.942 352.174 299.918 352.116 299.894 352.059C297.466 346.27 281.977 362.407 281.307 367.848C281.012 370.253 281.136 372.691 281.675 375.053C276.657 364.107 274.052 352.21 274.035 340.168C274.034 337.146 274.202 334.127 274.538 331.124C274.816 328.662 275.201 326.218 275.694 323.791C278.383 310.624 284.157 298.283 292.541 287.781C297.336 288.048 301.538 287.318 301.944 278.024C302.016 276.37 303.242 274.939 303.512 273.31C303.055 273.37 302.589 273.408 302.132 273.438C301.989 273.445 301.839 273.453 301.696 273.46L301.643 273.463C301.14 273.485 300.641 273.362 300.206 273.108C299.771 272.853 299.42 272.478 299.193 272.029C298.966 271.579 298.874 271.073 298.928 270.572C298.982 270.072 299.18 269.597 299.497 269.206C299.695 268.963 299.893 268.72 300.09 268.477C300.391 268.101 300.698 267.734 300.998 267.358C301.033 267.323 301.066 267.285 301.096 267.246C301.441 266.818 301.786 266.398 302.132 265.97C301.502 264.992 300.654 264.172 299.655 263.576C296.196 261.549 291.423 262.953 288.924 266.082C286.417 269.212 285.945 273.603 286.815 277.513C287.671 280.84 289.087 283.998 291.003 286.85C290.815 287.09 290.62 287.323 290.432 287.563C287.003 291.973 284.014 296.709 281.508 301.703C282.217 296.165 273.548 276.163 270.195 271.927C266.168 266.838 257.91 269.059 257.201 275.51C257.194 275.572 257.187 275.634 257.18 275.697C257.678 275.978 258.166 276.276 258.643 276.592C259.242 276.992 259.706 277.564 259.975 278.233C260.243 278.902 260.304 279.636 260.148 280.339C259.992 281.043 259.627 281.683 259.101 282.176C258.575 282.669 257.913 282.991 257.201 283.101L257.128 283.112C250.462 292.631 271.831 317.405 277.18 311.843C274.662 318.978 273.083 326.411 272.482 333.954C272.142 338.404 272.162 342.874 272.542 347.321L272.519 347.163C271.331 337.478 250.943 323.078 244.989 324.278C241.559 324.968 238.181 324.811 238.702 328.272C238.71 328.327 238.719 328.382 238.727 328.437C239.651 328.814 240.551 329.247 241.421 329.736C241.919 330.017 242.407 330.315 242.884 330.63C243.483 331.031 243.947 331.603 244.216 332.271C244.484 332.94 244.544 333.675 244.388 334.378C244.233 335.082 243.868 335.722 243.342 336.215C242.816 336.708 242.154 337.03 241.442 337.14L241.369 337.151C241.316 337.158 241.271 337.166 241.219 337.174C238.184 347.615 260.686 364.466 274.365 359.104H274.373C275.729 364.996 277.693 370.731 280.234 376.216H301.171C301.246 375.984 301.314 375.744 301.381 375.511C299.443 375.633 297.498 375.517 295.588 375.166C297.141 373.259 298.695 371.338 300.248 369.432C300.283 369.396 300.315 369.358 300.346 369.319C301.134 368.343 301.929 367.375 302.717 366.399L302.717 366.398C302.759 363.407 302.416 360.424 301.696 357.521L301.696 357.52ZM277.72 310.349L277.731 310.334L277.72 310.364V310.349ZM273.082 352.162L272.902 351.756C272.91 351.464 272.91 351.171 272.902 350.871C272.902 350.788 272.887 350.706 272.887 350.623C272.955 351.141 273.015 351.659 273.09 352.177L273.082 352.162Z" fill="#3F3D56"/>
<path d="M66.4428 313.947C70.6806 313.947 74.116 310.511 74.116 306.273C74.116 302.035 70.6806 298.599 66.4428 298.599C62.205 298.599 58.7695 302.035 58.7695 306.273C58.7695 310.511 62.205 313.947 66.4428 313.947Z" fill="#3F3D56"/>
<path d="M158.522 397.666C162.76 397.666 166.195 394.231 166.195 389.992C166.195 385.754 162.76 382.318 158.522 382.318C154.284 382.318 150.849 385.754 150.849 389.992C150.849 394.231 154.284 397.666 158.522 397.666Z" fill="#3F3D56"/>
<path d="M508.003 397.666C512.241 397.666 515.677 394.231 515.677 389.992C515.677 385.754 512.241 382.318 508.003 382.318C503.766 382.318 500.33 385.754 500.33 389.992C500.33 394.231 503.766 397.666 508.003 397.666Z" fill="#3F3D56"/>
<path d="M526.837 299.994C531.075 299.994 534.511 296.558 534.511 292.32C534.511 288.081 531.075 284.646 526.837 284.646C522.599 284.646 519.164 288.081 519.164 292.32C519.164 296.558 522.599 299.994 526.837 299.994Z" fill="#3F3D56"/>
<path d="M504.515 228.833C508.753 228.833 512.188 225.397 512.188 221.158C512.188 216.92 508.753 213.484 504.515 213.484C500.277 213.484 496.842 216.92 496.842 221.158C496.842 225.397 500.277 228.833 504.515 228.833Z" fill="#3F3D56"/>
<path d="M184.331 292.32C184.326 294.28 183.568 296.164 182.214 297.58C180.859 298.997 179.012 299.839 177.054 299.932C175.097 300.025 173.178 299.361 171.696 298.078C170.214 296.796 169.281 294.992 169.092 293.041C168.902 291.09 169.469 289.141 170.677 287.596C171.884 286.052 173.639 285.031 175.578 284.745C177.517 284.459 179.492 284.929 181.094 286.058C182.696 287.188 183.802 288.89 184.185 290.813C184.283 291.309 184.332 291.814 184.331 292.32Z" fill="#3F3D56"/>
<path d="M337.796 251.158C342.034 251.158 345.47 247.722 345.47 243.484C345.47 239.245 342.034 235.809 337.796 235.809C333.558 235.809 330.123 239.245 330.123 243.484C330.123 247.722 333.558 251.158 337.796 251.158Z" fill="#3F3D56"/>
<path d="M261.762 243.484C261.757 245.444 260.999 247.327 259.645 248.744C258.29 250.161 256.443 251.003 254.485 251.096C252.527 251.188 250.609 250.525 249.126 249.242C247.644 247.959 246.712 246.156 246.522 244.205C246.333 242.254 246.9 240.304 248.108 238.76C249.315 237.216 251.07 236.195 253.009 235.909C254.948 235.623 256.923 236.093 258.525 237.222C260.127 238.352 261.233 240.054 261.615 241.977C261.714 242.473 261.763 242.978 261.762 243.484Z" fill="#3F3D56"/>
<path d="M162.707 221.158C162.702 223.119 161.944 225.002 160.59 226.419C159.235 227.836 157.388 228.678 155.43 228.771C153.472 228.863 151.554 228.2 150.072 226.917C148.59 225.634 147.657 223.831 147.468 221.88C147.278 219.929 147.845 217.979 149.053 216.435C150.26 214.891 152.015 213.87 153.954 213.584C155.893 213.297 157.868 213.768 159.47 214.897C161.072 216.027 162.178 217.729 162.56 219.651C162.659 220.148 162.708 220.652 162.707 221.158Z" fill="#3F3D56"/>
<path d="M418.017 316.738C422.255 316.738 425.69 313.302 425.69 309.064C425.69 304.825 422.255 301.389 418.017 301.389C413.779 301.389 410.344 304.825 410.344 309.064C410.344 313.302 413.779 316.738 418.017 316.738Z" fill="#3F3D56"/>
<path d="M297.338 246.972C303.502 246.972 308.499 241.974 308.499 235.809C308.499 229.644 303.502 224.647 297.338 224.647C291.174 224.647 286.177 229.644 286.177 235.809C286.177 241.974 291.174 246.972 297.338 246.972Z" fill="#3F3D56"/>
<path d="M599.169 398.253L0.830576 398.467C0.721502 398.467 0.613494 398.446 0.512723 398.404C0.411953 398.362 0.320396 398.301 0.24327 398.224C0.166143 398.147 0.104956 398.055 0.063215 397.955C0.0214744 397.854 0 397.746 0 397.637C0 397.528 0.0214744 397.42 0.063215 397.319C0.104956 397.218 0.166143 397.126 0.24327 397.049C0.320396 396.972 0.411953 396.911 0.512723 396.869C0.613494 396.827 0.721502 396.806 0.830576 396.806L599.169 396.592C599.389 396.592 599.6 396.68 599.755 396.836C599.91 396.991 599.998 397.202 599.998 397.422C599.998 397.642 599.91 397.853 599.755 398.009C599.6 398.164 599.389 398.252 599.169 398.253Z" fill="#CACACA"/>
</g>
<defs>
<clipPath id="clip0_453_14">
<rect width="600" height="398.467" fill="white"/>
</clipPath>
</defs>
</svg>
