<svg width="72" height="72" viewBox="0 0 72 72" fill="none" xmlns="http://www.w3.org/2000/svg">
<g clip-path="url(#clip0_550_2)">
<rect width="72" height="72" rx="14" fill="white"/>
<path fill-rule="evenodd" clip-rule="evenodd" d="M55.3549 30.8383C54.9381 31.39 54.3579 31.7689 53.7125 31.9109V31.9186C52.7475 32.1351 51.8809 32.7048 51.2588 33.5317C50.6367 34.3586 50.297 35.3922 50.297 36.4584C50.297 37.5246 50.6367 38.5582 51.2588 39.3851C51.8809 40.212 52.7475 40.7817 53.7125 40.9982C54.3579 41.1402 54.9381 41.5191 55.3549 42.0708C55.7718 42.6224 55.9996 43.3129 56 44.0253V48.8182C56 49.6379 55.699 50.4241 55.1632 51.0038C54.6273 51.5834 53.9006 51.9091 53.1429 51.9091H31.7143V21H53.1429C53.9006 21 54.6273 21.3256 55.1632 21.9053C55.699 22.485 56 23.2711 56 24.0909V29.1136C55.9996 29.8261 55.7718 30.2867 55.3549 30.8383ZM29.3333 21H18.8571C18.0994 21 17.3727 21.3256 16.8368 21.9053C16.301 22.485 16 23.2711 16 24.0909V28.8837C16.0004 29.5962 16.2282 30.2867 16.6451 30.8383C17.0619 31.39 17.6421 31.7689 18.2875 31.9109C19.2525 32.1274 20.1191 32.6971 20.7412 33.524C21.3633 34.3509 21.703 35.3845 21.703 36.4507C21.703 37.5169 21.3633 38.5505 20.7412 39.3774C20.1191 40.2043 19.2525 40.774 18.2875 40.9905C17.6409 41.1328 17.0598 41.5128 16.6428 42.066C16.2258 42.6192 15.9987 43.3115 16 44.0253V48.8182C16 49.6379 16.301 50.4241 16.8368 51.0038C17.3727 51.5834 18.0994 51.9091 18.8571 51.9091H29.3333V21Z" fill="#030712"/>
</g>
<defs>
<clipPath id="clip0_550_2">
<rect width="72" height="72" fill="white"/>
</clipPath>
</defs>
</svg>
