<svg width="72" height="72" viewBox="0 0 72 72" fill="none" xmlns="http://www.w3.org/2000/svg">
<g clip-path="url(#clip0_545_214)">
<rect width="72" height="72" rx="14" fill="#030712"/>
<path fill-rule="evenodd" clip-rule="evenodd" d="M55.4707 29.8673C55.0526 30.4205 54.4707 30.8005 53.8234 30.943V30.9507C52.8556 31.1679 51.9865 31.7392 51.3625 32.5686C50.7386 33.3979 50.3979 34.4346 50.3979 35.5039C50.3979 36.5732 50.7386 37.6098 51.3625 38.4392C51.9865 39.2685 52.8556 39.8399 53.8234 40.057C54.4707 40.1995 55.0526 40.5795 55.4707 41.1327C55.8887 41.686 56.1173 42.3785 56.1176 43.0931V47.9C56.1176 48.7222 55.8157 49.5107 55.2784 50.092C54.741 50.6734 54.0121 51 53.2521 51H31.7605V20H53.2521C54.0121 20 54.741 20.3266 55.2784 20.908C55.8157 21.4893 56.1176 22.2778 56.1176 23.1V28.1375C56.1173 28.8521 55.8887 29.314 55.4707 29.8673ZM29.3726 20H18.8656C18.1056 20 17.3767 20.3266 16.8393 20.908C16.3019 21.4893 16 22.2778 16 23.1V27.9069C16.0004 28.6215 16.2289 29.314 16.647 29.8673C17.065 30.4205 17.647 30.8005 18.2942 30.943C19.2621 31.1601 20.1312 31.7315 20.7551 32.5608C21.3791 33.3902 21.7197 34.4268 21.7197 35.4961C21.7197 36.5654 21.3791 37.6021 20.7551 38.4314C20.1312 39.2608 19.2621 39.8321 18.2942 40.0492C17.6457 40.192 17.0629 40.5731 16.6447 41.128C16.2265 41.6828 15.9987 42.3772 16 43.0931V47.9C16 48.7222 16.3019 49.5107 16.8393 50.092C17.3767 50.6734 18.1056 51 18.8656 51H29.3726V20Z" fill="url(#paint0_linear_545_214)"/>
</g>
<defs>
<linearGradient id="paint0_linear_545_214" x1="17.754" y1="22.5833" x2="125.096" y2="92.0414" gradientUnits="userSpaceOnUse">
<stop stop-color="white"/>
<stop offset="1" stop-color="white" stop-opacity="0"/>
<stop offset="1" stop-color="white" stop-opacity="0"/>
</linearGradient>
<clipPath id="clip0_545_214">
<rect width="72" height="72" fill="white"/>
</clipPath>
</defs>
</svg>
