<svg width="72" height="72" viewBox="0 0 72 72" fill="none" xmlns="http://www.w3.org/2000/svg">
<g clip-path="url(#clip0_545_216)">
<path d="M3 26.4667C3 18.2526 3 14.1455 4.59857 11.0082C6.00471 8.24843 8.24843 6.00471 11.0082 4.59857C14.1455 3 18.2526 3 26.4667 3H45.5333C53.7474 3 57.8545 3 60.9918 4.59857C63.7515 6.00471 65.9953 8.24843 67.4014 11.0082C69 14.1455 69 18.2526 69 26.4667V45.5333C69 53.7474 69 57.8545 67.4014 60.9918C65.9953 63.7515 63.7515 65.9953 60.9918 67.4014C57.8545 69 53.7474 69 45.5333 69H26.4667C18.2526 69 14.1455 69 11.0082 67.4014C8.24843 65.9953 6.00471 63.7515 4.59857 60.9918C3 57.8545 3 53.7474 3 45.5333V26.4667Z" fill="url(#paint0_linear_545_216)"/>
<path fill-rule="evenodd" clip-rule="evenodd" d="M45.5333 5.75H26.4667C22.3143 5.75 19.3653 5.75214 17.0575 5.94069C14.7819 6.12661 13.373 6.48001 12.2566 7.04884C10.0143 8.19133 8.19133 10.0143 7.04884 12.2566C6.48001 13.373 6.12661 14.7819 5.94069 17.0575C5.75214 19.3653 5.75 22.3143 5.75 26.4667V45.5333C5.75 49.6857 5.75214 52.6347 5.94069 54.9425C6.12661 57.2181 6.48001 58.627 7.04884 59.7434C8.19133 61.9857 10.0143 63.8086 12.2566 64.9512C13.373 65.52 14.7819 65.8733 17.0575 66.0593C19.3653 66.2479 22.3143 66.25 26.4667 66.25H45.5333C49.6857 66.25 52.6347 66.2479 54.9425 66.0593C57.2181 65.8733 58.627 65.52 59.7434 64.9512C61.9857 63.8086 63.8086 61.9857 64.9512 59.7434C65.52 58.627 65.8733 57.2181 66.0593 54.9425C66.2479 52.6347 66.25 49.6857 66.25 45.5333V26.4667C66.25 22.3143 66.2479 19.3653 66.0593 17.0575C65.8733 14.7819 65.52 13.373 64.9512 12.2566C63.8086 10.0143 61.9857 8.19133 59.7434 7.04884C58.627 6.48001 57.2181 6.12661 54.9425 5.94069C52.6347 5.75214 49.6857 5.75 45.5333 5.75ZM4.59857 11.0082C3 14.1455 3 18.2526 3 26.4667V45.5333C3 53.7474 3 57.8545 4.59857 60.9918C6.00471 63.7515 8.24843 65.9953 11.0082 67.4014C14.1455 69 18.2526 69 26.4667 69H45.5333C53.7474 69 57.8545 69 60.9918 67.4014C63.7515 65.9953 65.9953 63.7515 67.4014 60.9918C69 57.8545 69 53.7474 69 45.5333V26.4667C69 18.2526 69 14.1455 67.4014 11.0082C65.9953 8.24843 63.7515 6.00471 60.9918 4.59857C57.8545 3 53.7474 3 45.5333 3H26.4667C18.2526 3 14.1455 3 11.0082 4.59857C8.24843 6.00471 6.00471 8.24843 4.59857 11.0082Z" fill="black"/>
<path d="M1 25.5333C1 16.9459 1 12.6521 2.67124 9.37219C4.14129 6.487 6.487 4.14129 9.37219 2.67124C12.6521 1 16.9459 1 25.5333 1H45.4667C54.0541 1 58.3479 1 61.6278 2.67124C64.513 4.14129 66.8587 6.487 68.3288 9.37219C70 12.6521 70 16.9459 70 25.5333V45.4667C70 54.0541 70 58.3479 68.3288 61.6278C66.8587 64.513 64.513 66.8587 61.6278 68.3288C58.3479 70 54.0541 70 45.4667 70H25.5333C16.9459 70 12.6521 70 9.37219 68.3288C6.487 66.8587 4.14129 64.513 2.67124 61.6278C1 58.3479 1 54.0541 1 45.4667V25.5333Z" fill="url(#paint1_linear_545_216)"/>
<path fill-rule="evenodd" clip-rule="evenodd" d="M45.7218 4.22038e-07C49.7544 -2.07055e-05 52.9501 -3.74271e-05 55.5259 0.210416C58.1599 0.425627 60.3887 0.874641 62.4238 1.91158C65.7239 3.59305 68.4069 6.27609 70.0884 9.57619C71.1254 11.6113 71.5744 13.8401 71.7895 16.4741C72 19.0499 72 22.2456 72 26.2781V45.7219C72 49.7544 72 52.9501 71.7895 55.5259C71.5744 58.1599 71.1254 60.3887 70.0884 62.4238C68.4069 65.7239 65.7239 68.4069 62.4238 70.0884C60.3887 71.1254 58.1599 71.5744 55.5259 71.7895C52.9501 72 49.7544 72 45.7219 72H26.2781C22.2456 72 19.0499 72 16.4741 71.7895C13.8401 71.5744 11.6113 71.1254 9.57618 70.0884C6.27609 68.4069 3.59305 65.7239 1.91158 62.4238C0.87464 60.3887 0.425627 58.1599 0.210416 55.5259C-3.74271e-05 52.9501 -2.07055e-05 49.7544 4.2204e-07 45.7218V26.2782C-2.07055e-05 22.2456 -3.74271e-05 19.0499 0.210416 16.4741C0.425627 13.8401 0.874641 11.6113 1.91158 9.57619C3.59305 6.27609 6.27609 3.59305 9.57618 1.91158C11.6113 0.87464 13.8401 0.425627 16.4741 0.210416C19.0499 -3.74271e-05 22.2456 -2.07055e-05 26.2782 4.22038e-07H45.7218ZM4.37898 10.8334C2.76923 13.9926 2.76923 18.1285 2.76923 26.4V45.6C2.76923 53.8715 2.76923 58.0074 4.37898 61.1666C5.79496 63.9456 8.05436 66.205 10.8334 67.621C13.9926 69.2308 18.1285 69.2308 26.4 69.2308H45.6C53.8715 69.2308 58.0074 69.2308 61.1666 67.621C63.9456 66.205 66.205 63.9456 67.621 61.1666C69.2308 58.0074 69.2308 53.8715 69.2308 45.6V26.4C69.2308 18.1285 69.2308 13.9926 67.621 10.8334C66.205 8.05436 63.9456 5.79496 61.1666 4.37899C58.0074 2.76923 53.8715 2.76923 45.6 2.76923H26.4C18.1285 2.76923 13.9926 2.76923 10.8334 4.37899C8.05436 5.79496 5.79496 8.05436 4.37898 10.8334Z" fill="black"/>
<path fill-rule="evenodd" clip-rule="evenodd" d="M45.7218 4.22038e-07C49.7544 -2.07055e-05 52.9501 -3.74271e-05 55.5259 0.210416C58.1599 0.425627 60.3887 0.874641 62.4238 1.91158C65.7239 3.59305 68.4069 6.27609 70.0884 9.57619C71.1254 11.6113 71.5744 13.8401 71.7895 16.4741C72 19.0499 72 22.2456 72 26.2781V45.7219C72 49.7544 72 52.9501 71.7895 55.5259C71.5744 58.1599 71.1254 60.3887 70.0884 62.4238C68.4069 65.7239 65.7239 68.4069 62.4238 70.0884C60.3887 71.1254 58.1599 71.5744 55.5259 71.7895C52.9501 72 49.7544 72 45.7219 72H26.2781C22.2456 72 19.0499 72 16.4741 71.7895C13.8401 71.5744 11.6113 71.1254 9.57618 70.0884C6.27609 68.4069 3.59305 65.7239 1.91158 62.4238C0.87464 60.3887 0.425627 58.1599 0.210416 55.5259C-3.74271e-05 52.9501 -2.07055e-05 49.7544 4.2204e-07 45.7218V26.2782C-2.07055e-05 22.2456 -3.74271e-05 19.0499 0.210416 16.4741C0.425627 13.8401 0.874641 11.6113 1.91158 9.57619C3.59305 6.27609 6.27609 3.59305 9.57618 1.91158C11.6113 0.87464 13.8401 0.425627 16.4741 0.210416C19.0499 -3.74271e-05 22.2456 -2.07055e-05 26.2782 4.22038e-07H45.7218ZM4.37898 10.8334C2.76923 13.9926 2.76923 18.1285 2.76923 26.4V45.6C2.76923 53.8715 2.76923 58.0074 4.37898 61.1666C5.79496 63.9456 8.05436 66.205 10.8334 67.621C13.9926 69.2308 18.1285 69.2308 26.4 69.2308H45.6C53.8715 69.2308 58.0074 69.2308 61.1666 67.621C63.9456 66.205 66.205 63.9456 67.621 61.1666C69.2308 58.0074 69.2308 53.8715 69.2308 45.6V26.4C69.2308 18.1285 69.2308 13.9926 67.621 10.8334C66.205 8.05436 63.9456 5.79496 61.1666 4.37899C58.0074 2.76923 53.8715 2.76923 45.6 2.76923H26.4C18.1285 2.76923 13.9926 2.76923 10.8334 4.37899C8.05436 5.79496 5.79496 8.05436 4.37898 10.8334Z" fill="url(#paint2_linear_545_216)"/>
<path fill-rule="evenodd" clip-rule="evenodd" d="M54.4033 31.2307C54.0177 31.7482 53.481 32.1037 52.8841 32.237V32.2442C51.9914 32.4474 51.1899 32.9819 50.6144 33.7577C50.039 34.5335 49.7248 35.5033 49.7248 36.5036C49.7248 37.504 50.039 38.4737 50.6144 39.2495C51.1899 40.0254 51.9914 40.5599 52.8841 40.763C53.481 40.8963 54.0177 41.2518 54.4033 41.7693C54.7889 42.2869 54.9997 42.9347 55 43.6032V48.1C55 48.8691 54.7216 49.6068 54.2259 50.1506C53.7303 50.6945 53.0581 51 52.3571 51H32.5357V22H52.3571C53.0581 22 53.7303 22.3055 54.2259 22.8494C54.7216 23.3932 55 24.1309 55 24.9V29.6125C54.9997 30.281 54.7889 30.7131 54.4033 31.2307ZM30.3333 22H20.6429C19.9419 22 19.2697 22.3055 18.7741 22.8494C18.2784 23.3932 18 24.1309 18 24.9V29.3968C18.0003 30.0653 18.2111 30.7131 18.5967 31.2307C18.9823 31.7482 19.519 32.1037 20.1159 32.237C21.0086 32.4401 21.8101 32.9746 22.3856 33.7505C22.9611 34.5263 23.2752 35.4961 23.2752 36.4964C23.2752 37.4967 22.9611 38.4665 22.3856 39.2423C21.8101 40.0181 21.0086 40.5526 20.1159 40.7558C19.5179 40.8893 18.9803 41.2458 18.5946 41.7649C18.2089 42.2839 17.9988 42.9335 18 43.6032V48.1C18 48.8691 18.2784 49.6068 18.7741 50.1506C19.2697 50.6945 19.9419 51 20.6429 51H30.3333V22Z" fill="url(#paint3_linear_545_216)"/>
</g>
<defs>
<linearGradient id="paint0_linear_545_216" x1="36" y1="-18.0833" x2="36" y2="69" gradientUnits="userSpaceOnUse">
<stop stop-color="#4C4C57"/>
<stop offset="0.444444" stop-color="#05050A"/>
<stop offset="1"/>
</linearGradient>
<linearGradient id="paint1_linear_545_216" x1="35.5" y1="-21.0417" x2="35.5" y2="70" gradientUnits="userSpaceOnUse">
<stop stop-color="#4C4C57"/>
<stop offset="0.444444" stop-color="#05050A"/>
<stop offset="1"/>
</linearGradient>
<linearGradient id="paint2_linear_545_216" x1="25.8462" y1="2.76923" x2="38.7692" y2="63.6923" gradientUnits="userSpaceOnUse">
<stop stop-color="white" stop-opacity="0.6"/>
<stop offset="1" stop-color="white" stop-opacity="0.2"/>
</linearGradient>
<linearGradient id="paint3_linear_545_216" x1="19.6177" y1="24.4166" x2="119.443" y2="88.0998" gradientUnits="userSpaceOnUse">
<stop stop-color="white"/>
<stop offset="1" stop-color="white" stop-opacity="0"/>
<stop offset="1" stop-color="white" stop-opacity="0"/>
</linearGradient>
<clipPath id="clip0_545_216">
<rect width="72" height="72" fill="white"/>
</clipPath>
</defs>
</svg>
